<svg width="123" height="36" viewBox="0 0 123 36" fill="none" xmlns="http://www.w3.org/2000/svg">
<path d="M121.988 31.7499C121.988 33.6548 120.433 35.1979 118.51 35.1979H4.68978C2.76752 35.1979 1.20721 33.6548 1.20721 31.7499V4.25371C1.20721 2.34969 2.76752 0.80127 4.68978 0.80127H118.509C120.433 0.80127 121.987 2.34969 121.987 4.25371L121.988 31.7499Z" fill="white"/>
<path d="M118.51 35.9999H4.68966C2.3247 35.9999 0.399719 34.0941 0.399719 31.7499V4.25456C0.399719 1.90852 2.3247 0 4.68966 0H118.509C120.871 0 122.799 1.90852 122.799 4.25456V31.7499C122.8 34.0941 120.873 35.9999 118.51 35.9999Z" fill="#CFD4D8"/>
<path d="M121.988 31.7499C121.988 33.6548 120.433 35.1979 118.51 35.1979H4.68978C2.76752 35.1979 1.20721 33.6548 1.20721 31.7499V4.25371C1.20721 2.34969 2.76752 0.80127 4.68978 0.80127H118.509C120.433 0.80127 121.987 2.34969 121.987 4.25371L121.988 31.7499Z" fill="#272B30"/>
<path d="M33.2262 17.8103C33.1999 14.9088 35.6202 13.4973 35.7309 13.4315C34.3602 11.4483 32.2356 11.1773 31.489 11.1557C29.7046 10.9694 27.9738 12.2153 27.0648 12.2153C26.1377 12.2153 24.738 11.1737 23.2294 11.2043C21.2881 11.234 19.4719 12.3494 18.4759 14.0815C16.4203 17.6132 17.9534 22.8031 19.9228 25.6578C20.908 27.0568 22.0591 28.6169 23.5659 28.562C25.0401 28.5026 25.5907 27.6302 27.3696 27.6302C29.1322 27.6302 29.6493 28.562 31.186 28.5269C32.7681 28.5026 33.7642 27.1225 34.7149 25.7118C35.8533 24.1103 36.3106 22.5312 36.3287 22.4502C36.2924 22.4376 33.2571 21.2871 33.2262 17.8103Z" fill="white"/>
<path d="M30.3229 9.27778C31.1157 8.29382 31.6582 6.95515 31.5076 5.59668C30.3601 5.64709 28.925 6.38439 28.0985 7.34676C27.3674 8.19479 26.7142 9.58477 26.883 10.8919C28.172 10.9874 29.4956 10.2464 30.3229 9.27778Z" fill="white"/>
<path d="M52.3019 22.9802H50.5428L49.5793 19.9756H46.2301L45.3123 22.9802H43.5997L46.9187 12.751H48.9682L52.3019 22.9802ZM49.2888 18.715L48.4175 16.0439C48.3253 15.771 48.1518 15.1284 47.8977 14.1169H47.8668C47.7645 14.5519 47.6011 15.1945 47.3772 16.0439L46.5206 18.715H49.2888Z" fill="white"/>
<path d="M60.8204 19.2021C60.8204 20.4566 60.4773 21.4482 59.7903 22.1761C59.1753 22.824 58.4108 23.1476 57.4991 23.1476C56.5147 23.1476 55.8067 22.7994 55.3768 22.1015V25.9717H53.7255V18.0292C53.7255 17.2413 53.7046 16.4334 53.6643 15.6048H55.1166L55.2088 16.774H55.2398C55.7905 15.8931 56.6262 15.4526 57.7478 15.4526C58.6246 15.4526 59.3565 15.7962 59.9421 16.4842C60.5269 17.1737 60.8204 18.0791 60.8204 19.2021ZM59.1381 19.2621C59.1381 18.5442 58.9754 17.9523 58.6486 17.4857C58.2915 17.0007 57.8121 16.7578 57.211 16.7578C56.8036 16.7578 56.4333 16.8931 56.1026 17.1598C55.7711 17.4289 55.5542 17.7801 55.4528 18.2152C55.4016 18.4181 55.3761 18.5834 55.3761 18.714V19.9447C55.3761 20.4804 55.5418 20.9332 55.8733 21.3036C56.2049 21.6726 56.6355 21.8578 57.1653 21.8578C57.7873 21.8578 58.2714 21.6188 58.6176 21.1445C58.9646 20.6687 59.1381 20.0415 59.1381 19.2621Z" fill="white"/>
<path d="M69.369 19.2021C69.369 20.4566 69.0259 21.4482 68.3389 22.1761C67.7231 22.824 66.9594 23.1476 66.047 23.1476C65.0625 23.1476 64.3545 22.7994 63.9247 22.1015V25.9717H62.2733V18.0292C62.2733 17.2413 62.2524 16.4334 62.2121 15.6048H63.6644L63.7566 16.774H63.7876C64.3375 15.8931 65.1733 15.4526 66.2956 15.4526C67.1716 15.4526 67.9036 15.7962 68.4907 16.4842C69.0747 17.1737 69.369 18.0791 69.369 19.2021ZM67.6859 19.2621C67.6859 18.5442 67.5225 17.9523 67.1956 17.4857C66.8385 17.0007 66.3607 16.7578 65.7596 16.7578C65.3522 16.7578 64.9819 16.8931 64.6497 17.1598C64.3181 17.4289 64.102 17.7801 64.0006 18.2152C63.9502 18.4181 63.9231 18.5834 63.9231 18.714V19.9447C63.9231 20.4804 64.0896 20.9332 64.4196 21.3036C64.7511 21.6718 65.1818 21.8578 65.7131 21.8578C66.3359 21.8578 66.82 21.6188 67.1654 21.1445C67.5124 20.6687 67.6859 20.0415 67.6859 19.2621Z" fill="white"/>
<path d="M78.9272 20.1114C78.9272 20.9823 78.6204 21.6902 78.0109 22.2367C77.3401 22.8332 76.4037 23.1322 75.2031 23.1322C74.0939 23.1322 73.2048 22.9201 72.534 22.495L72.9158 21.1291C73.6401 21.5549 74.4355 21.7671 75.3015 21.7671C75.9242 21.7671 76.4083 21.6272 76.7538 21.3497C77.1 21.0715 77.275 20.6994 77.275 20.2352C77.275 19.8193 77.1302 19.4711 76.8459 19.1875C76.5601 18.9046 76.0877 18.641 75.4239 18.3988C73.6191 17.7309 72.716 16.7539 72.716 15.4687C72.716 14.6293 73.0351 13.9422 73.6718 13.4049C74.3085 12.8684 75.1528 12.6001 76.2031 12.6001C77.141 12.6001 77.9226 12.7623 78.543 13.0859L78.1286 14.4218C77.5446 14.1082 76.8854 13.9514 76.1481 13.9514C75.5656 13.9514 75.1086 14.0936 74.7818 14.3765C74.5068 14.6293 74.3674 14.9376 74.3674 15.3035C74.3674 15.707 74.5261 16.0421 74.8422 16.305C75.1164 16.5471 75.6167 16.8108 76.3402 17.0937C77.2278 17.4488 77.88 17.8623 78.2975 18.3373C78.718 18.8124 78.9272 19.405 78.9272 20.1114Z" fill="white"/>
<path d="M84.4009 16.8344H82.5807V20.4155C82.5807 21.3264 82.9013 21.7807 83.5442 21.7807C83.8393 21.7807 84.0841 21.7561 84.2777 21.7046L84.3234 22.949C83.9981 23.0697 83.5698 23.1304 83.0392 23.1304C82.387 23.1304 81.8774 22.9329 81.5095 22.5378C81.1431 22.1427 80.9588 21.4809 80.9588 20.5493V16.8313H79.8744V15.6015H80.9588V14.2509L82.5807 13.7651V15.6015H84.4009V16.8344Z" fill="white"/>
<path d="M92.5973 19.2318C92.5973 20.3655 92.2704 21.2964 91.6182 22.0243C90.9359 22.7737 90.0281 23.1473 88.8965 23.1473C87.8043 23.1473 86.936 22.7883 86.2885 22.0712C85.641 21.3525 85.3172 20.447 85.3172 19.3548C85.3172 18.2118 85.6518 17.2755 86.3187 16.5476C86.9872 15.8189 87.8872 15.4546 89.0188 15.4546C90.1094 15.4546 90.9854 15.8143 91.6484 16.5322C92.282 17.2286 92.5973 18.128 92.5973 19.2318ZM90.8855 19.2694C90.8855 18.5938 90.7383 18.0142 90.4432 17.5292C90.097 16.9435 89.6013 16.6506 88.9592 16.6506C88.2977 16.6506 87.7904 16.9435 87.4449 17.5292C87.1491 18.0142 87.0019 18.6038 87.0019 19.3002C87.0019 19.9766 87.1491 20.5577 87.4449 21.0412C87.802 21.6269 88.3 21.9198 88.9452 21.9198C89.5765 21.9198 90.0714 21.6207 90.4293 21.0266C90.7329 20.53 90.8855 19.9466 90.8855 19.2694Z" fill="white"/>
<path d="M97.9673 17.0461C97.8039 17.0161 97.6288 17.0007 97.4468 17.0007C96.8659 17.0007 96.4167 17.2175 96.1006 17.6541C95.8264 18.0384 95.6886 18.5242 95.6886 19.1107V22.9809H94.0372V17.9277C94.0372 17.0783 94.021 16.3035 93.9892 15.6056H95.4275L95.488 17.0169H95.5337C95.7087 16.5318 95.9829 16.1406 96.3593 15.8477C96.7272 15.5841 97.1246 15.4526 97.5529 15.4526C97.7055 15.4526 97.8434 15.4634 97.9658 15.4826L97.9673 17.0461Z" fill="white"/>
<path d="M105.353 18.9437C105.353 19.2373 105.333 19.4848 105.292 19.687H100.338C100.357 20.4157 100.597 20.9737 101.057 21.358C101.475 21.7009 102.014 21.873 102.677 21.873C103.411 21.873 104.08 21.7577 104.682 21.5248L104.941 22.6617C104.237 22.9661 103.407 23.1175 102.449 23.1175C101.296 23.1175 100.392 22.7808 99.7334 22.109C99.0766 21.4364 98.7474 20.5325 98.7474 19.4003C98.7474 18.2888 99.0533 17.3626 99.666 16.6239C100.307 15.8352 101.174 15.4409 102.265 15.4409C103.336 15.4409 104.147 15.8352 104.698 16.6239C105.134 17.2488 105.353 18.0236 105.353 18.9437ZM103.778 18.5186C103.79 18.0321 103.681 17.6131 103.457 17.2588C103.172 16.8022 102.732 16.5747 102.142 16.5747C101.602 16.5747 101.162 16.7968 100.828 17.2426C100.553 17.597 100.389 18.0228 100.339 18.5171L103.778 18.5186Z" fill="white"/>
</svg>
