<svg width="123" height="36" viewBox="0 0 123 36" fill="none" xmlns="http://www.w3.org/2000/svg">
<path d="M117.866 36H4.53332C2.04 36 0 33.975 0 31.5V4.50023C0 2.02525 2.04 0.000259399 4.53332 0.000259399H117.866C120.36 0.000259399 122.4 2.02525 122.4 4.50023V31.5C122.4 33.975 120.36 36 117.866 36Z" fill="#272B30"/>
<path d="M117.866 0.000259399H4.53332C2.04 0.000259399 0 2.02525 0 4.50023V31.5C0 33.975 2.04 36 4.53332 36H117.866C120.36 36 122.4 33.975 122.4 31.5V4.50023C122.4 2.02525 120.36 0.000259399 117.866 0.000259399ZM117.866 0.720253C119.966 0.720253 121.674 2.41584 121.674 4.50023V31.5C121.674 33.5844 119.966 35.28 117.866 35.28H4.53332C2.43349 35.28 0.725335 33.5844 0.725335 31.5V4.50023C0.725335 2.41584 2.43349 0.720253 4.53332 0.720253H117.866Z" fill="#CFD4D8"/>
<path d="M94.8438 23.3316H96.5357V12.0808H94.8438V23.3316ZM110.082 16.1335L108.143 21.0114H108.085L106.072 16.1335H104.25L107.268 22.9509L105.548 26.7435H107.311L111.963 16.1335H110.082ZM100.488 22.0536C99.9329 22.0536 99.1605 21.7791 99.1605 21.0978C99.1605 20.2302 100.122 19.8973 100.954 19.8973C101.697 19.8973 102.048 20.0565 102.5 20.2734C102.368 21.3156 101.464 22.0536 100.488 22.0536ZM100.692 15.8878C99.4669 15.8878 98.1976 16.4233 97.6735 17.6104L99.175 18.2323C99.4959 17.6104 100.093 17.407 100.721 17.407C101.596 17.407 102.485 17.9281 102.5 18.8551V18.9703C102.193 18.7966 101.538 18.5365 100.735 18.5365C99.1169 18.5365 97.4686 19.4194 97.4686 21.069C97.4686 22.5747 98.796 23.5449 100.283 23.5449C101.421 23.5449 102.048 23.0382 102.442 22.4442H102.5V23.3127H104.133V18.9991C104.133 17.002 102.631 15.8878 100.692 15.8878ZM90.2362 17.5033H87.8299V13.6468H90.2362C91.501 13.6468 92.219 14.6863 92.219 15.5746C92.219 16.4467 91.501 17.5033 90.2362 17.5033ZM90.1926 12.0808H86.1389V23.3316H87.8299V19.0693H90.1926C92.0676 19.0693 93.9109 17.7211 93.9109 15.5746C93.9109 13.4281 92.0676 12.0808 90.1926 12.0808ZM68.0872 22.0554C66.9186 22.0554 65.9403 21.0843 65.9403 19.7506C65.9403 18.4024 66.9186 17.416 68.0872 17.416C69.2414 17.416 70.1463 18.4024 70.1463 19.7506C70.1463 21.0843 69.2414 22.0554 68.0872 22.0554ZM70.0302 16.7635H69.9713C69.5914 16.3144 68.8615 15.9085 67.9413 15.9085C66.0128 15.9085 64.2457 17.5897 64.2457 19.7506C64.2457 21.8961 66.0128 23.5638 67.9413 23.5638C68.8615 23.5638 69.5914 23.1579 69.9713 22.6935H70.0302V23.2452C70.0302 24.7095 69.2414 25.4925 67.9703 25.4925C66.9331 25.4925 66.2902 24.7527 66.0273 24.129L64.5522 24.7383C64.9756 25.7535 66.1007 27 67.9703 27C69.9568 27 71.6368 25.8399 71.6368 23.013V16.1398H70.0302V16.7635ZM72.8055 23.3316H74.5001V12.0799H72.8055V23.3316ZM76.997 19.6201C76.9535 18.1414 78.1512 17.3872 79.0126 17.3872C79.6853 17.3872 80.2547 17.7202 80.4442 18.199L76.997 19.6201ZM82.2557 18.3439C81.9347 17.4889 80.9555 15.9085 78.9545 15.9085C76.968 15.9085 75.3179 17.4592 75.3179 19.7362C75.3179 21.8817 76.9535 23.5638 79.144 23.5638C80.912 23.5638 81.9347 22.491 82.3582 21.8673L81.0435 20.997C80.6056 21.6351 80.0063 22.0554 79.144 22.0554C78.2827 22.0554 77.6689 21.6639 77.2745 20.8962L82.4307 18.7786L82.2557 18.3439ZM41.1765 17.083V18.7066H45.0906C44.9736 19.6201 44.6672 20.2869 44.2003 20.7504C43.63 21.3165 42.7387 21.9402 41.1765 21.9402C38.7657 21.9402 36.8817 20.0115 36.8817 17.6194C36.8817 15.2263 38.7657 13.2985 41.1765 13.2985C42.4767 13.2985 43.426 13.8061 44.1268 14.4586L45.281 13.3129C44.3018 12.385 43.0026 11.674 41.1765 11.674C37.8754 11.674 35.1001 14.3425 35.1001 17.6194C35.1001 20.8962 37.8754 23.5638 41.1765 23.5638C42.9581 23.5638 44.3018 22.9833 45.3535 21.8961C46.4352 20.8233 46.7707 19.3159 46.7707 18.0973C46.7707 17.7202 46.7416 17.3728 46.6827 17.083H41.1765ZM51.2215 22.0554C50.0528 22.0554 49.0446 21.0987 49.0446 19.7362C49.0446 18.3583 50.0528 17.416 51.2215 17.416C52.3893 17.416 53.3975 18.3583 53.3975 19.7362C53.3975 21.0987 52.3893 22.0554 51.2215 22.0554ZM51.2215 15.9085C49.0881 15.9085 47.35 17.5177 47.35 19.7362C47.35 21.9402 49.0881 23.5638 51.2215 23.5638C53.3539 23.5638 55.092 21.9402 55.092 19.7362C55.092 17.5177 53.3539 15.9085 51.2215 15.9085ZM59.6652 22.0554C58.4965 22.0554 57.4883 21.0987 57.4883 19.7362C57.4883 18.3583 58.4965 17.416 59.6652 17.416C60.8339 17.416 61.8412 18.3583 61.8412 19.7362C61.8412 21.0987 60.8339 22.0554 59.6652 22.0554ZM59.6652 15.9085C57.5328 15.9085 55.7947 17.5177 55.7947 19.7362C55.7947 21.9402 57.5328 23.5638 59.6652 23.5638C61.7977 23.5638 63.5358 21.9402 63.5358 19.7362C63.5358 17.5177 61.7977 15.9085 59.6652 15.9085Z" fill="white"/>
<g opacity="0.199997">
<g opacity="0.199997">
<path opacity="0.199997" d="M24.5056 21.7189L11.3453 29.1411C10.6091 29.5569 9.95087 29.529 9.52837 29.151L9.46127 29.2185L9.52837 29.2833V29.2824C9.95087 29.6604 10.6091 29.6883 11.3453 29.2725L24.5899 21.8026L24.5056 21.7189Z" fill="#272B30"/>
</g>
</g>
<g opacity="0.119995">
<g opacity="0.119995">
<path opacity="0.119995" d="M9.45982 29.0864C9.19599 28.8092 9.04004 28.379 9.04004 27.8219V27.9533C9.04004 28.5104 9.19599 28.9406 9.45982 29.2178L9.52782 29.1512L9.45982 29.0864Z" fill="#272B30"/>
</g>
</g>
<g opacity="0.119995">
<g opacity="0.119995">
<path opacity="0.119995" d="M29.0259 19.1694L24.5053 21.719L24.5896 21.8027L29.0259 19.3008C29.6597 18.9435 29.9761 18.4728 29.9761 18.0021C29.9226 18.4278 29.6007 18.8454 29.0259 19.1694Z" fill="#272B30"/>
</g>
</g>
<g opacity="0.25">
<g opacity="0.25">
<path opacity="0.25" d="M11.3439 6.86135L29.0247 16.8333C29.5996 17.1573 29.9223 17.5749 29.9749 18.0015C29.9758 17.5308 29.6585 17.0592 29.0247 16.7019L11.3439 6.72995C10.0764 6.01535 9.04004 6.60845 9.04004 8.04934V8.18074C9.04004 6.74075 10.0764 6.14675 11.3439 6.86135Z" fill="white"/>
</g>
</g>
<path d="M9.46002 6.78468C9.19708 7.06187 9.04114 7.49207 9.04114 8.04917V27.9534C9.04114 28.5114 9.19708 28.9407 9.46002 29.2179L9.52711 29.2827L20.7607 18.1327V18.0013V17.869L9.52711 6.71898L9.46002 6.78468Z" fill="url(#paint0_linear_29_6853)"/>
<path d="M20.7605 17.8691V18.0014V18.1328L24.5041 21.8516L24.5893 21.8039L29.0257 19.3019C30.2923 18.5864 30.2923 17.4164 29.0257 16.7027L24.5893 14.1998L24.505 14.1521L20.7605 17.8691Z" fill="url(#paint1_linear_29_6853)"/>
<path d="M9.46082 29.2176C9.87879 29.6559 10.5688 29.7108 11.3458 29.2734L24.5903 21.8026L20.7615 18.001L9.46082 29.2176Z" fill="url(#paint2_linear_29_6853)"/>
<path d="M9.46082 6.78436L20.7615 18.001L24.5903 14.1994L11.3458 6.72946C10.9813 6.52336 10.6359 6.42616 10.3294 6.42616C9.98124 6.42616 9.68295 6.55126 9.46082 6.78436Z" fill="url(#paint3_linear_29_6853)"/>
<defs>
<linearGradient id="paint0_linear_29_6853" x1="19.764" y1="7.83921" x2="4.66038" y2="23.0548" gradientUnits="userSpaceOnUse">
<stop stop-color="#00A0FF"/>
<stop offset="0.00657445" stop-color="#00A1FF"/>
<stop offset="0.2601" stop-color="#00BEFF"/>
<stop offset="0.5122" stop-color="#00D2FF"/>
<stop offset="0.7604" stop-color="#00DFFF"/>
<stop offset="1" stop-color="#00E3FF"/>
</linearGradient>
<linearGradient id="paint1_linear_29_6853" x1="30.6752" y1="18.0018" x2="8.73675" y2="18.0018" gradientUnits="userSpaceOnUse">
<stop stop-color="#FFE000"/>
<stop offset="0.4087" stop-color="#FFBD00"/>
<stop offset="0.7754" stop-color="#FFA500"/>
<stop offset="1" stop-color="#FF9C00"/>
</linearGradient>
<linearGradient id="paint2_linear_29_6853" x1="22.5095" y1="20.0666" x2="2.02775" y2="40.7001" gradientUnits="userSpaceOnUse">
<stop stop-color="#FF3A44"/>
<stop offset="1" stop-color="#C31162"/>
</linearGradient>
<linearGradient id="paint3_linear_29_6853" x1="6.616" y1="0.158768" x2="15.762" y2="9.37252" gradientUnits="userSpaceOnUse">
<stop stop-color="#32A071"/>
<stop offset="0.0685" stop-color="#2DA771"/>
<stop offset="0.4762" stop-color="#15CF74"/>
<stop offset="0.8009" stop-color="#06E775"/>
<stop offset="1" stop-color="#00F076"/>
</linearGradient>
</defs>
</svg>
