<svg width="52" height="36" viewBox="0 0 52 36" fill="none" xmlns="http://www.w3.org/2000/svg">
<g style="mix-blend-mode:luminosity">
<g clip-path="url(#clip0_31_19566)">
<path fill-rule="evenodd" clip-rule="evenodd" d="M9.83671 12.9412C10.3819 12.7616 10.9506 12.6718 11.524 12.6718C14.1043 12.6718 16.2569 14.477 16.7457 16.8729L20.3976 16.1405C19.5657 12.0669 15.9091 9 11.5287 9C10.5229 9 9.55941 9.16067 8.65701 9.45839L9.83671 12.9412Z" fill="#FFCA05"/>
<path fill-rule="evenodd" clip-rule="evenodd" d="M5.5926 24.7507L8.093 21.972C6.9744 20.9985 6.2741 19.5808 6.2741 17.9977C6.2741 16.4146 6.9791 14.997 8.093 14.0282L5.5926 11.2495C3.6985 12.9035 2.5 15.3136 2.5 18.0025C2.5 20.6866 3.6985 23.1014 5.5926 24.7507Z" fill="#00A4DF"/>
<path fill-rule="evenodd" clip-rule="evenodd" d="M16.7504 19.127C16.2569 21.5229 14.1043 23.3281 11.5287 23.3281C10.9553 23.3281 10.3819 23.2383 9.83671 23.0587L8.65231 26.5462C9.55471 26.844 10.5229 27.0046 11.5287 27.0046C15.9091 27.0046 19.561 23.9424 20.4023 19.8689L16.7504 19.127Z" fill="#EE4123"/>
<path fill-rule="evenodd" clip-rule="evenodd" d="M30.7473 20.956L30.6392 20.8898C30.3384 21.3766 29.8778 21.7735 29.2903 22.0287C28.1764 22.5202 27.1424 22.3926 26.3998 21.7357L26.334 21.8397H26.3293L25.065 23.7536C25.3799 23.9757 25.7183 24.16 26.0708 24.3112C27.4714 24.8972 28.9002 24.8736 30.3102 24.2498C31.3301 23.8056 32.1291 23.1203 32.679 22.2603L30.7473 20.956ZM26.7946 16.2351C25.6149 16.7454 25.0086 17.8607 25.1355 19.1697L30.1269 17.0006C29.2668 15.9846 28.1529 15.6491 26.7946 16.2351ZM23.4811 22.0665C23.3401 21.8302 23.2132 21.5845 23.1004 21.3293C22.5223 19.9778 22.4988 18.5837 22.9829 17.2416C23.5187 15.772 24.5386 14.6425 25.8593 14.0707C27.5184 13.3477 29.3561 13.4895 30.9447 14.4441C31.9552 15.03 32.6696 15.9326 33.2148 17.2133C33.2853 17.3787 33.3464 17.5535 33.4028 17.7L23.4811 22.0665ZM36.8761 11.2495V21.8869L38.5164 22.558L37.5858 24.7507L35.7763 23.9946C35.3721 23.815 35.0948 23.5456 34.8833 23.2385C34.6812 22.9266 34.5355 22.4966 34.5355 21.92V11.2495H36.8761ZM41.1202 19.1791C41.1202 20.0487 41.4868 20.8757 42.1354 21.4475L40.4575 23.3424C39.2731 22.2839 38.601 20.767 38.6057 19.1791C38.6057 17.5866 39.2825 16.0744 40.4669 15.0206L42.1448 16.9108C41.4915 17.4826 41.1202 18.3096 41.1202 19.1791ZM44.1047 22.1988C45.5476 22.1988 46.7508 21.1686 47.0328 19.7935L49.5003 20.3039C48.988 22.8368 46.7649 24.746 44.1047 24.7412C43.5125 24.7412 42.9203 24.642 42.3563 24.453L43.16 22.0429C43.4561 22.1421 43.771 22.1988 44.1047 22.1988ZM44.1094 13.6218C46.7696 13.6218 48.9927 15.5357 49.5003 18.0733L47.0328 18.579C46.7555 17.1755 45.5288 16.1642 44.1094 16.1642C43.7898 16.1642 43.4655 16.2162 43.1647 16.3201L42.3704 13.9101C42.9297 13.7163 43.5172 13.6218 44.1094 13.6218Z" fill="black"/>
</g>
</g>
<defs>
<clipPath id="clip0_31_19566">
<rect width="47" height="18" fill="white" transform="translate(2.5 9)"/>
</clipPath>
</defs>
</svg>
