<svg width="52" height="36" viewBox="0 0 52 36" fill="none" xmlns="http://www.w3.org/2000/svg">
<g style="mix-blend-mode:luminosity">
<path d="M28.4034 28.9999C34.4662 29.0286 40 24.0961 40 18.0955C40 11.5335 34.4662 6.99782 28.4034 7H23.1856C17.0501 6.99782 12 11.5349 12 18.0955C12 24.0974 17.0501 29.0287 23.1856 28.9999H28.4034Z" fill="#0079BE"/>
<path d="M23.2109 7.90927C17.6045 7.91101 13.0614 12.4179 13.0601 17.9804C13.0614 23.5418 17.6045 28.0483 23.2109 28.0501C28.8187 28.0483 33.3627 23.5418 33.3635 17.9804C33.3626 12.4179 28.8187 7.91101 23.2109 7.90927ZM16.7766 17.9804C16.7819 15.2622 18.4936 12.9444 20.9073 12.0233V23.936C18.4936 23.0155 16.7818 20.6989 16.7766 17.9804ZM25.5137 23.9386V12.0229C27.9283 12.9418 29.6426 15.2609 29.647 17.9804C29.6426 20.7006 27.9283 23.018 25.5137 23.9386Z" fill="white"/>
<path d="M28.4034 28.9999C34.4662 29.0286 40 24.0961 40 18.0955C40 11.5335 34.4662 6.99782 28.4034 7H23.1856C17.0501 6.99782 12 11.5349 12 18.0955C12 24.0974 17.0501 29.0287 23.1856 28.9999H28.4034Z" fill="#0079BE"/>
<path d="M23.2109 7.90927C17.6045 7.91101 13.0614 12.4179 13.0601 17.9804C13.0614 23.5418 17.6045 28.0483 23.2109 28.0501C28.8187 28.0483 33.3627 23.5418 33.3635 17.9804C33.3626 12.4179 28.8187 7.91101 23.2109 7.90927ZM16.7766 17.9804C16.7819 15.2622 18.4936 12.9444 20.9073 12.0233V23.936C18.4936 23.0155 16.7818 20.6989 16.7766 17.9804ZM25.5137 23.9386V12.0229C27.9283 12.9418 29.6426 15.2609 29.647 17.9804C29.6426 20.7006 27.9283 23.018 25.5137 23.9386Z" fill="white"/>
</g>
</svg>
