<svg width="52" height="36" viewBox="0 0 52 36" fill="none" xmlns="http://www.w3.org/2000/svg">
<g style="mix-blend-mode:luminosity">
<path d="M49.1662 19.6167C49.1662 19.6167 36.4147 28.2891 13.0625 32.1786H49.1662V19.6167Z" fill="#F48120"/>
<path d="M49.3265 3.51151H2.5V32.5H49.5V3.5H49.3265V3.51151ZM49.1659 3.83379C49.1659 4.15607 49.1659 31.8439 49.1659 32.1662C48.8317 32.1662 3.18021 32.1662 2.84607 32.1662C2.84607 31.8439 2.84607 4.15607 2.84607 3.83379C3.18021 3.83379 48.8198 3.83379 49.1659 3.83379Z" fill="white"/>
<path d="M6.60557 12.375H4.66406V18.9366H6.60557C7.63186 18.9366 8.37449 18.6984 9.02992 18.1849C9.80928 17.5643 10.2664 16.6337 10.2664 15.6678C10.2545 13.7234 8.7582 12.375 6.60557 12.375ZM8.16428 17.3137C7.74385 17.6714 7.21234 17.8387 6.34578 17.8387H5.98777V13.4968H6.3467C7.20041 13.4968 7.71998 13.6402 8.1652 14.0218C8.62326 14.4158 8.89498 15.0241 8.89498 15.6562C8.89406 16.2884 8.62143 16.9206 8.16428 17.3137Z" fill="#231F20"/>
<path d="M12.1968 12.375H10.873V18.9366H12.1968V12.375Z" fill="#231F20"/>
<path d="M15.4363 14.8925C14.6451 14.6065 14.4101 14.4153 14.4101 14.0691C14.4101 13.6512 14.8305 13.3413 15.3996 13.3413C15.7953 13.3413 16.1294 13.4962 16.4636 13.8778L17.1566 13.0066C16.5875 12.5294 15.9073 12.2788 15.1527 12.2788C13.9529 12.2788 13.0258 13.0898 13.0258 14.1638C13.0258 15.0704 13.459 15.5353 14.6955 15.9656C15.2151 16.1444 15.4749 16.2639 15.6108 16.3357C15.8705 16.503 16.0064 16.7412 16.0064 17.0156C16.0064 17.5522 15.5731 17.9462 14.9801 17.9462C14.3495 17.9462 13.8418 17.6363 13.5334 17.075L12.6797 17.8745C13.2855 18.7457 14.0282 19.1273 15.0297 19.1273C16.403 19.1273 17.3797 18.2446 17.3797 16.9678C17.4036 15.9062 16.9455 15.429 15.4363 14.8925Z" fill="#231F20"/>
<path d="M17.8115 15.668C17.8115 17.6008 19.3822 19.0918 21.398 19.0918C21.9672 19.0918 22.462 18.9847 23.055 18.7102V17.2068C22.5235 17.7195 22.0535 17.9222 21.4595 17.9222C20.1239 17.9222 19.171 16.9917 19.171 15.6556C19.171 14.3913 20.1478 13.4006 21.3971 13.4006C22.0278 13.4006 22.5106 13.6157 23.054 14.1399V12.6365C22.473 12.3505 21.9901 12.231 21.421 12.231C19.4317 12.2318 17.8115 13.7591 17.8115 15.668Z" fill="#231F20"/>
<path d="M33.5943 16.7887L31.7758 12.375H30.3291L33.2106 19.1031H33.9285L36.8595 12.375H35.4247L33.5943 16.7887Z" fill="#231F20"/>
<path d="M37.4648 18.9366H41.2248V17.8272H38.7886V16.0618H41.1386V14.9515H38.7886V13.4968H41.2248V12.375H37.4648V18.9366Z" fill="#231F20"/>
<path d="M46.4813 14.3195C46.4813 13.0906 45.6028 12.3867 44.0698 12.3867H42.1035V18.9483H43.4272V16.3116H43.6007L45.4312 18.9483H47.0642L44.9244 16.1806C45.925 15.9779 46.4813 15.3218 46.4813 14.3195ZM43.81 15.405H43.4263V13.4129H43.8348C44.6637 13.4129 45.1089 13.7467 45.1089 14.3912C45.1089 15.0473 44.6637 15.405 43.81 15.405Z" fill="#231F20"/>
<path d="M27.1261 19.1751C29.1277 19.1751 30.7502 17.6101 30.7502 15.6796C30.7502 13.7491 29.1277 12.1841 27.1261 12.1841C25.1245 12.1841 23.502 13.7491 23.502 15.6796C23.502 17.6101 25.1245 19.1751 27.1261 19.1751Z" fill="url(#paint0_linear_31_18808)"/>
<path opacity="0.65" d="M27.1261 19.1751C29.1277 19.1751 30.7502 17.6101 30.7502 15.6796C30.7502 13.7491 29.1277 12.1841 27.1261 12.1841C25.1245 12.1841 23.502 13.7491 23.502 15.6796C23.502 17.6101 25.1245 19.1751 27.1261 19.1751Z" fill="url(#paint1_linear_31_18808)"/>
<path d="M47.3237 12.6261C47.3237 12.5066 47.2374 12.4473 47.1006 12.4473H46.9023V13.0201H47.0511V12.7935L47.2245 13.0201H47.398L47.1998 12.7819C47.2741 12.7695 47.3237 12.7093 47.3237 12.6261ZM47.0758 12.7093H47.0511V12.5544H47.0758C47.1502 12.5544 47.1869 12.5783 47.1869 12.6261C47.1869 12.6854 47.1502 12.7093 47.0758 12.7093Z" fill="#231F20"/>
<path d="M47.125 12.2319C46.8405 12.2319 46.6055 12.4586 46.6055 12.7331C46.6055 13.0075 46.8405 13.2342 47.125 13.2342C47.4096 13.2342 47.6446 13.0075 47.6446 12.7331C47.6446 12.4586 47.4096 12.2319 47.125 12.2319ZM47.125 13.151C46.902 13.151 46.7046 12.9721 46.7046 12.7331C46.7046 12.5064 46.89 12.3152 47.125 12.3152C47.3481 12.3152 47.5335 12.5064 47.5335 12.7331C47.5335 12.9597 47.3481 13.151 47.125 13.151Z" fill="#231F20"/>
</g>
<defs>
<linearGradient id="paint0_linear_31_18808" x1="28.9784" y1="18.477" x2="26.5999" y2="14.616" gradientUnits="userSpaceOnUse">
<stop stop-color="#F89F20"/>
<stop offset="0.2502" stop-color="#F79A20"/>
<stop offset="0.5331" stop-color="#F68D20"/>
<stop offset="0.6196" stop-color="#F58720"/>
<stop offset="0.7232" stop-color="#F48120"/>
<stop offset="1" stop-color="#F37521"/>
</linearGradient>
<linearGradient id="paint1_linear_31_18808" x1="28.5829" y1="18.4261" x2="25.1269" y2="11.4226" gradientUnits="userSpaceOnUse">
<stop stop-color="#F58720"/>
<stop offset="0.3587" stop-color="#E16F27"/>
<stop offset="0.703" stop-color="#D4602C"/>
<stop offset="0.9816" stop-color="#D05B2E"/>
</linearGradient>
</defs>
</svg>
