<svg width="52" height="36" viewBox="0 0 52 36" fill="none" xmlns="http://www.w3.org/2000/svg">
<g style="mix-blend-mode:luminosity">
<path fill-rule="evenodd" clip-rule="evenodd" d="M49.4495 21.5626C40.9821 18.9146 25.9306 14.9468 2.5 20.5681V16.3441C25.7989 10.3368 43.8322 15.1643 49.5 17.1718L49.4495 21.5626Z" fill="#ED1C24"/>
<path fill-rule="evenodd" clip-rule="evenodd" d="M17.4561 13.7686C18.6178 10.7683 21.2767 8.17764 25.8964 8.20629C30.5161 8.23494 33.5972 10.7009 34.4288 13.9271C28.476 13.3489 24.5074 13.2478 17.4561 13.7686Z" fill="#FFF200"/>
<path d="M15.5 27.4185L18.0114 22.5H18.9364L21.612 27.4185H20.6322L19.87 25.9297H17.1325L16.412 27.4185H15.5ZM17.386 25.4H19.6035L18.9205 24.0399C18.7514 23.712 18.597 23.3716 18.458 23.0202C18.3694 23.3528 18.2509 23.6703 18.105 23.9661L17.3846 25.4057L17.386 25.4ZM26.0108 27.4185V26.8964C25.641 27.2987 25.1396 27.4999 24.5066 27.4999C24.2431 27.5026 23.9803 27.4625 23.7242 27.3807C23.5309 27.3286 23.3476 27.2257 23.1854 27.078C23.0715 26.9639 22.9855 26.8088 22.9375 26.6316C22.8987 26.4469 22.8822 26.2554 22.8885 26.064V23.8602H23.6911V25.8332C23.6822 26.0478 23.6988 26.2629 23.7401 26.4708C23.8048 26.6478 23.9203 26.7838 24.0614 26.8491C24.2553 26.946 24.462 26.9916 24.6694 26.9834C24.8993 26.9858 25.128 26.9392 25.3466 26.8453C25.5226 26.7843 25.6794 26.6519 25.7947 26.467C25.893 26.2587 25.9393 26.0153 25.9272 25.7708V23.8602H26.7298V27.4185H26.0108ZM28.6763 27.4185V23.8602H29.3967V24.3993C29.5385 24.1874 29.7128 24.0172 29.9082 23.8999C30.0724 23.8175 30.2469 23.7764 30.4226 23.7788C30.704 23.7798 30.9832 23.8438 31.2482 23.968L30.9716 24.5355C30.7826 24.4486 30.5839 24.4039 30.3837 24.4031C30.2211 24.3997 30.0598 24.4403 29.9097 24.5223C29.7847 24.5854 29.6796 24.7021 29.6114 24.8533C29.5214 25.0689 29.4753 25.3113 29.4774 25.5571V27.4204L28.6763 27.4185ZM35.5159 26.9796C35.2409 27.1583 34.9507 27.2935 34.6514 27.3826C34.36 27.4627 34.063 27.502 33.7653 27.4999C33.2452 27.4999 32.8461 27.4053 32.5651 27.2142C32.2842 27.0232 32.1458 26.7791 32.1458 26.4821C32.1465 26.3925 32.1609 26.3039 32.1881 26.2217C32.2153 26.1395 32.2549 26.0653 32.3043 26.0035C32.4211 25.8496 32.5623 25.7314 32.7178 25.6573C32.9044 25.568 33.0975 25.5046 33.2942 25.4681C33.4512 25.4379 33.689 25.4057 34.0059 25.3773C34.486 25.3451 34.9643 25.2756 35.4381 25.1692C35.4381 25.086 35.4381 25.0349 35.4381 25.0122C35.4442 24.9058 35.4257 24.7995 35.3851 24.707C35.3445 24.6146 35.2836 24.5403 35.2105 24.4939C34.9216 24.3364 34.6093 24.2665 34.297 24.2896C34.0133 24.2713 33.7295 24.3219 33.4599 24.439C33.2793 24.5396 33.1361 24.7291 33.0608 24.9668L32.2769 24.8855C32.3446 24.64 32.4671 24.427 32.6285 24.2745C32.8434 24.0916 33.0847 23.9692 33.3374 23.915C33.6916 23.8261 34.0517 23.7843 34.4122 23.7902C34.7427 23.7819 35.0729 23.818 35.3978 23.898C35.5952 23.9421 35.7848 24.0338 35.9568 24.1685C36.0699 24.2687 36.1569 24.4119 36.2061 24.579C36.2386 24.7612 36.2517 24.9483 36.245 25.1352V25.9392C36.2322 26.295 36.2496 26.6516 36.2968 27.0023C36.3371 27.1644 36.4069 27.3111 36.5 27.4299H35.6614C35.5785 27.3056 35.5232 27.1538 35.5015 26.991L35.5159 26.9796ZM35.4482 25.6327C35.0156 25.7483 34.5776 25.8247 34.1371 25.8616C33.9018 25.8794 33.6678 25.9193 33.4368 25.9808C33.3211 26.0093 33.2123 26.0742 33.1198 26.17C33.0863 26.2038 33.0588 26.247 33.0394 26.2964C33.02 26.3457 33.0091 26.4001 33.0074 26.4556C33.0074 26.6164 33.0896 26.7507 33.2509 26.8586C33.4757 26.9809 33.7183 27.0359 33.9613 27.0194C34.2408 27.0256 34.5193 26.9745 34.7869 26.868C34.9903 26.7965 35.1745 26.6517 35.3185 26.45C35.4143 26.275 35.4602 26.0614 35.4482 25.8465V25.6327Z" fill="#2C328C"/>
</g>
</svg>
