<svg width="52" height="36" viewBox="0 0 52 36" fill="none" xmlns="http://www.w3.org/2000/svg">
<g style="mix-blend-mode:luminosity">
<path d="M11.6014 26.524V19.145H19.3949L20.2311 20.2378L21.0949 19.145H49.3836V26.0151C49.3836 26.0151 48.6438 26.5166 47.7881 26.524H32.1241L31.1814 25.3608V26.524H28.0921V24.5384C28.0921 24.5384 27.6701 24.8155 26.7578 24.8155H25.7062V26.524H21.0288L20.1938 25.4078L19.346 26.524H11.6014Z" fill="white"/>
<path d="M2.49982 13.5836L4.25729 9.47607H7.29666L8.29405 11.7769V9.47607H12.0723L12.666 11.1391L13.2416 9.47607H30.2019V10.3121C30.2019 10.3121 31.0935 9.47607 32.5588 9.47607L38.0617 9.49535L39.0419 11.7661V9.47607H42.2037L43.074 10.7804V9.47607H46.2648V16.855H43.074L42.24 15.5464V16.855H37.5946L37.1274 15.6918H35.8786L35.419 16.855H32.2687C31.0079 16.855 30.2019 16.0361 30.2019 16.0361V16.855H25.4519L24.5092 15.6918V16.855H6.8464L6.37956 15.6918H5.1347L4.67116 16.855H2.49982V13.5836Z" fill="white"/>
<path d="M4.88003 10.3857L2.50958 15.9109H4.05287L4.49025 14.8045H7.03293L7.46804 15.9109H9.04532L6.67713 10.3857H4.88003ZM5.75705 11.6716L6.5321 13.605H4.97975L5.75705 11.6716Z" fill="#016FD0"/>
<path d="M9.20776 15.9099V10.3848L11.4009 10.3929L12.6764 13.9552L13.9215 10.3848H16.097V15.9099H14.7192V11.8387L13.2586 15.9099H12.0502L10.5856 11.8387V15.9099H9.20776Z" fill="#016FD0"/>
<path d="M17.0399 15.9099V10.3848H21.536V11.6207H18.4322V12.5657H21.4635V13.7289H18.4322V14.7104H21.536V15.9099H17.0399Z" fill="#016FD0"/>
<path d="M22.3338 10.3857V15.9109H23.7117V13.948H24.2918L25.9439 15.9109H27.6277L25.8147 13.8753C26.5587 13.8124 27.3263 13.1722 27.3263 12.1782C27.3263 11.0156 26.4159 10.3857 25.4 10.3857H22.3338ZM23.7117 11.6216H25.2867C25.6645 11.6216 25.9393 11.9179 25.9393 12.2032C25.9393 12.5703 25.5832 12.7848 25.3071 12.7848H23.7117V11.6216Z" fill="#016FD0"/>
<path d="M29.2953 15.9099H27.8884V10.3848H29.2953V15.9099Z" fill="#016FD0"/>
<path d="M32.6317 15.9099H32.328C30.8587 15.9099 29.9666 14.7494 29.9666 13.17C29.9666 11.5516 30.8487 10.3848 32.7042 10.3848H34.2271V11.6933H32.6485C31.8953 11.6933 31.3626 12.2826 31.3626 13.1837C31.3626 14.2537 31.9717 14.7031 32.8492 14.7031H33.2118L32.6317 15.9099Z" fill="#016FD0"/>
<path d="M35.6291 10.3857L33.2586 15.9109H34.8019L35.2393 14.8045H37.782L38.2171 15.9109H39.7943L37.4262 10.3857H35.6291ZM36.5061 11.6716L37.2811 13.605H35.7288L36.5061 11.6716Z" fill="#016FD0"/>
<path d="M39.9559 15.9099V10.3848H41.7077L43.9444 13.8561V10.3848H45.3222V15.9099H43.6271L41.3337 12.3476V15.9099H39.9559Z" fill="#016FD0"/>
<path d="M12.5438 25.5788V20.0537H17.0399V21.2896H13.9361V22.2347H16.9674V23.3979H13.9361V24.3793H17.0399V25.5788H12.5438Z" fill="#016FD0"/>
<path d="M34.575 25.5788V20.0537H39.0712V21.2896H35.9674V22.2347H38.9841V23.3979H35.9674V24.3793H39.0712V25.5788H34.575Z" fill="#016FD0"/>
<path d="M17.214 25.5788L19.4032 22.8504L17.1619 20.0537H18.8978L20.2326 21.7826L21.572 20.0537H23.2399L21.0281 22.8163L23.2213 25.5788H21.4856L20.1896 23.8772L18.925 25.5788H17.214Z" fill="#016FD0"/>
<path d="M23.3846 20.0547V25.5798H24.7987V23.835H26.2491C27.4763 23.835 28.4065 23.1824 28.4065 21.9131C28.4065 20.8616 27.6769 20.0547 26.4281 20.0547H23.3846ZM24.7987 21.3042H26.3261C26.7226 21.3042 27.006 21.5478 27.006 21.9403C27.006 22.3091 26.724 22.5764 26.3216 22.5764H24.7987V21.3042Z" fill="#016FD0"/>
<path d="M29.0057 20.0537V25.5788H30.3835V23.616H30.9637L32.6157 25.5788H34.2995L32.4866 23.5433C33.2306 23.4803 33.9981 22.8401 33.9981 21.8462C33.9981 20.6835 33.0878 20.0537 32.0719 20.0537H29.0057ZM30.3835 21.2896H31.9585C32.3364 21.2896 32.6112 21.5859 32.6112 21.8712C32.6112 22.2383 32.2551 22.4528 31.9789 22.4528H30.3835V21.2896Z" fill="#016FD0"/>
<path d="M39.7089 25.5788V24.3793H42.4665C42.8745 24.3793 43.0511 24.1583 43.0511 23.9159C43.0511 23.6836 42.875 23.4488 42.4665 23.4488H41.2204C40.1372 23.4488 39.534 22.7872 39.534 21.7939C39.534 20.908 40.0864 20.0537 41.696 20.0537H44.3791L43.799 21.2969H41.4784C41.0348 21.2969 40.8983 21.5302 40.8983 21.7531C40.8983 21.9821 41.067 22.2347 41.4059 22.2347H42.7112C43.9187 22.2347 44.4426 22.9213 44.4426 23.8204C44.4426 24.7871 43.8588 25.5788 42.6455 25.5788H39.7089Z" fill="#016FD0"/>
<path d="M44.7666 25.5788V24.3793H47.5241C47.9321 24.3793 48.1088 24.1583 48.1088 23.9159C48.1088 23.6836 47.9327 23.4488 47.5241 23.4488H46.278C45.1948 23.4488 44.5916 22.7872 44.5916 21.7939C44.5916 20.908 45.144 20.0537 46.7536 20.0537H49.4368L48.8566 21.2969H46.536C46.0924 21.2969 45.9559 21.5302 45.9559 21.7531C45.9559 21.9821 46.1246 22.2347 46.4635 22.2347H47.7688C48.9763 22.2347 49.5002 22.9213 49.5002 23.8204C49.5002 24.7871 48.9164 25.5788 47.7031 25.5788H44.7666Z" fill="#016FD0"/>
</g>
</svg>
