<svg width="52" height="36" viewBox="0 0 52 36" fill="none" xmlns="http://www.w3.org/2000/svg">
<g style="mix-blend-mode:luminosity">
<path d="M13.8869 32.4364V30.5117C13.8869 29.7755 13.4306 29.2934 12.6472 29.2934C12.2554 29.2934 11.8295 29.4205 11.5367 29.8391C11.3085 29.4878 10.9814 29.2934 10.4908 29.2934C10.1638 29.2934 9.83671 29.3906 9.5781 29.7419V29.357H8.89355V32.4364H9.5781V30.736C9.5781 30.1903 9.87094 29.9325 10.3273 29.9325C10.7837 29.9325 11.0118 30.2202 11.0118 30.736V32.4364H11.6964V30.736C11.6964 30.1903 12.0235 29.9325 12.4456 29.9325C12.902 29.9325 13.1301 30.2202 13.1301 30.736V32.4364H13.8869ZM24.041 29.357H22.9306V28.4264H22.246V29.357H21.6261V29.9661H22.246V31.3787C22.246 32.0851 22.5388 32.4999 23.3223 32.4999C23.6151 32.4999 23.9422 32.4027 24.1704 32.2757L23.9726 31.6964C23.7748 31.8235 23.5467 31.8571 23.3831 31.8571C23.0561 31.8571 22.9268 31.6628 22.9268 31.3451V29.9661H24.0372V29.357H24.041ZM29.8521 29.2897C29.4604 29.2897 29.198 29.484 29.0344 29.7382V29.3532H28.3499V32.4326H29.0344V30.6986C29.0344 30.1866 29.2626 29.8951 29.6886 29.8951C29.8179 29.8951 29.9814 29.9287 30.1145 29.9586L30.3123 29.3159C30.1753 29.2897 29.9814 29.2897 29.8521 29.2897ZM21.0709 29.6111C20.7438 29.3869 20.2875 29.2897 19.7969 29.2897C19.0134 29.2897 18.4924 29.6746 18.4924 30.2838C18.4924 30.7958 18.8841 31.0873 19.5687 31.1807L19.8957 31.2143C20.2532 31.2778 20.451 31.375 20.451 31.5357C20.451 31.7599 20.1886 31.9206 19.7322 31.9206C19.2758 31.9206 18.9146 31.7599 18.6864 31.5992L18.3593 32.1112C18.7168 32.3691 19.2074 32.4961 19.698 32.4961C20.6107 32.4961 21.1355 32.0776 21.1355 31.5021C21.1355 30.9565 20.7096 30.6687 20.0593 30.5715L19.7322 30.5379C19.4394 30.5043 19.2112 30.4407 19.2112 30.2501C19.2112 30.0259 19.4394 29.8989 19.8007 29.8989C20.1924 29.8989 20.5841 30.0595 20.7818 30.1567L21.0709 29.6111ZM39.2836 29.2897C38.8919 29.2897 38.6295 29.484 38.466 29.7382V29.3532H37.7814V32.4326H38.466V30.6986C38.466 30.1866 38.6941 29.8951 39.1201 29.8951C39.2494 29.8951 39.4129 29.9287 39.546 29.9586L39.7438 29.3233C39.6107 29.2897 39.4167 29.2897 39.2836 29.2897ZM30.5366 30.8967C30.5366 31.8272 31.1908 32.4999 32.2024 32.4999C32.6587 32.4999 32.9858 32.4027 33.3129 32.1486L32.9858 31.603C32.7234 31.7973 32.4648 31.8907 32.1681 31.8907C31.6129 31.8907 31.2212 31.5058 31.2212 30.8967C31.2212 30.3174 31.6129 29.9325 32.1681 29.9026C32.461 29.9026 32.7234 29.9998 32.9858 30.1903L33.3129 29.6447C32.9858 29.3869 32.6587 29.2934 32.2024 29.2934C31.1908 29.2897 30.5366 29.9661 30.5366 30.8967ZM36.8687 30.8967V29.357H36.1841V29.7419C35.956 29.4541 35.6289 29.2934 35.203 29.2934C34.3207 29.2934 33.6361 29.9661 33.6361 30.8967C33.6361 31.8272 34.3207 32.4999 35.203 32.4999C35.6593 32.4999 35.9864 32.3392 36.1841 32.0514V32.4364H36.8687V30.8967ZM34.3549 30.8967C34.3549 30.351 34.7124 29.9026 35.3018 29.9026C35.8571 29.9026 36.2488 30.3211 36.2488 30.8967C36.2488 31.4423 35.8571 31.8907 35.3018 31.8907C34.7162 31.8571 34.3549 31.4385 34.3549 30.8967ZM26.1631 29.2897C25.2504 29.2897 24.5963 29.9325 24.5963 30.8929C24.5963 31.8571 25.2504 32.4961 26.1974 32.4961C26.6537 32.4961 27.1101 32.3691 27.4714 32.0776L27.1443 31.5955C26.8819 31.7898 26.5549 31.9169 26.2316 31.9169C25.8057 31.9169 25.3835 31.7226 25.2846 31.1807H27.6007C27.6007 31.0835 27.6007 31.02 27.6007 30.9228C27.6311 29.9325 27.0416 29.2897 26.1631 29.2897ZM26.1631 29.869C26.5891 29.869 26.8819 30.1268 26.9466 30.6052H25.3151C25.3797 30.1903 25.6726 29.869 26.1631 29.869ZM43.1703 30.8967V28.1387H42.4858V29.7419C42.2576 29.4541 41.9305 29.2934 41.5046 29.2934C40.6223 29.2934 39.9377 29.9661 39.9377 30.8967C39.9377 31.8272 40.6223 32.4999 41.5046 32.4999C41.961 32.4999 42.288 32.3392 42.4858 32.0514V32.4364H43.1703V30.8967ZM40.6565 30.8967C40.6565 30.351 41.014 29.9026 41.6035 29.9026C42.1587 29.9026 42.5504 30.3211 42.5504 30.8967C42.5504 31.4423 42.1587 31.8907 41.6035 31.8907C41.014 31.8571 40.6565 31.4385 40.6565 30.8967ZM17.7394 30.8967V29.357H17.0549V29.7419C16.8267 29.4541 16.4996 29.2934 16.0737 29.2934C15.1914 29.2934 14.5068 29.9661 14.5068 30.8967C14.5068 31.8272 15.1914 32.4999 16.0737 32.4999C16.5301 32.4999 16.8571 32.3392 17.0549 32.0514V32.4364H17.7394V30.8967ZM15.1952 30.8967C15.1952 30.351 15.5527 29.9026 16.1421 29.9026C16.6974 29.9026 17.0891 30.3211 17.0891 30.8967C17.0891 31.4423 16.6974 31.8907 16.1421 31.8907C15.5527 31.8571 15.1952 31.4385 15.1952 30.8967Z" fill="black"/>
<path d="M31.1272 5.97021H20.8438V24.1251H31.1272V5.97021Z" fill="#FF5A00"/>
<path d="M21.5276 15.0477C21.5276 11.3592 23.2922 8.08544 26 5.97023C24.0072 4.43054 21.4934 3.5 18.7514 3.5C12.2558 3.5 7 8.66469 7 15.0477C7 21.4307 12.2558 26.5954 18.7514 26.5954C21.4934 26.5954 24.0072 25.6648 26 24.1251C23.2884 22.0398 21.5276 18.7362 21.5276 15.0477Z" fill="#EB001B"/>
<path d="M45 15.0477C45 21.4307 39.7442 26.5954 33.2486 26.5954C30.5066 26.5954 27.9928 25.6648 26 24.1251C28.742 22.0062 30.4724 18.7362 30.4724 15.0477C30.4724 11.3592 28.7078 8.08544 26 5.97023C27.989 4.43054 30.5028 3.5 33.2448 3.5C39.7442 3.5 45 8.69833 45 15.0477Z" fill="#F79E1B"/>
</g>
</svg>
