<svg width="52" height="36" viewBox="0 0 52 36" fill="none" xmlns="http://www.w3.org/2000/svg">
<g style="mix-blend-mode:luminosity">
<path d="M22.8669 25.7692H19.0596L21.441 10.2808H25.2481L22.8669 25.7692Z" fill="#00579F"/>
<path d="M36.6692 10.6594C35.9182 10.346 34.7271 10 33.2543 10C29.4944 10 26.8467 12.109 26.8305 15.1241C26.7993 17.3487 28.7261 18.5843 30.1673 19.326C31.6403 20.084 32.141 20.5787 32.141 21.2543C32.126 22.2919 30.9508 22.7702 29.8546 22.7702C28.3345 22.7702 27.52 22.5236 26.2823 21.9463L25.781 21.6989L25.2482 25.1757C26.1411 25.6036 27.7863 25.9834 29.4944 26C33.4893 26 36.0902 23.9237 36.121 20.7105C36.1362 18.9474 35.1187 17.5964 32.9251 16.4924C31.5935 15.7837 30.778 15.3059 30.778 14.5808C30.7936 13.9216 31.4677 13.2464 32.9709 13.2464C34.2087 13.2134 35.1181 13.5263 35.807 13.8395L36.1514 14.0039L36.6692 10.6594Z" fill="#00579F"/>
<path d="M41.7287 20.2822C42.0422 19.3924 43.2487 15.9487 43.2487 15.9487C43.2329 15.9817 43.5616 15.0424 43.7496 14.4658L44.0157 15.8004C44.0157 15.8004 44.7367 19.5078 44.8933 20.2822C44.2983 20.2822 42.4807 20.2822 41.7287 20.2822ZM46.4283 10.2808H43.4834C42.5752 10.2808 41.8852 10.5606 41.4934 11.5658L35.8381 25.769H39.833C39.833 25.769 40.4907 23.8573 40.6321 23.4456C41.0703 23.4456 44.9566 23.4456 45.5204 23.4456C45.6297 23.9894 45.9747 25.769 45.9747 25.769H49.4999L46.4283 10.2808Z" fill="#00579F"/>
<path d="M15.8805 10.2808L12.1518 20.8424L11.7444 18.7004C11.055 16.2288 8.89308 13.5434 6.48047 12.2082L9.89577 25.7528H13.9219L19.9064 10.2808H15.8805Z" fill="#00579F"/>
<path d="M8.68831 10.2808H2.56267L2.5 10.5937C7.27839 11.879 10.443 14.9772 11.7432 18.701L10.4116 11.5827C10.1923 10.5935 9.51861 10.3134 8.68831 10.2808Z" fill="#FAA61A"/>
</g>
</svg>
