<svg width="24" height="24" viewBox="0 0 24 24" fill="none" xmlns="http://www.w3.org/2000/svg">
<g clip-path="url(#clip0_31_20231)">
<path d="M1.61035 0.0234375H3.76468L5.15237 4.29356H5.28657L6.60999 0.0234375H8.78279L6.2934 6.27366V10.7075H4.15505V6.4725L1.61035 0.0234375ZM9.00905 4.62455C9.00905 3.99764 9.26663 3.49941 9.78216 3.12745C10.297 2.75555 10.9891 2.56959 11.8587 2.56959C12.6506 2.56959 13.2991 2.76609 13.8043 3.15787C14.3108 3.54966 14.5634 4.05375 14.5634 4.67133V8.85258C14.5634 9.54497 14.3149 10.0888 13.8196 10.483C13.3237 10.8771 12.6406 11.0748 11.7719 11.0748C10.9347 11.0748 10.2652 10.8712 9.76252 10.4643C9.26054 10.0573 9.00905 9.50991 9.00905 8.82098V4.62455ZM10.9784 8.973C10.9784 9.19641 11.0459 9.36717 11.1825 9.48998C11.3187 9.61162 11.5132 9.67125 11.7661 9.67125C12.0254 9.67125 12.2316 9.61045 12.3839 9.48647C12.5365 9.36136 12.6132 9.19055 12.6132 8.973V4.5637C12.6132 4.38708 12.5348 4.24439 12.3793 4.13564C12.2237 4.02684 12.0193 3.97186 11.7661 3.97186C11.533 3.97186 11.343 4.02684 11.1974 4.13564C11.0512 4.24439 10.9784 4.38708 10.9784 4.5637V8.973ZM21.5621 2.69944V10.7953H19.6457V9.90169C19.292 10.2315 18.9248 10.4818 18.5423 10.6549C18.1604 10.8257 17.7891 10.9122 17.43 10.9122C16.9868 10.9122 16.6522 10.7917 16.4276 10.5508C16.2031 10.3098 16.0908 9.94847 16.0908 9.46659V2.69944H18.0077V8.90522C18.0077 9.0982 18.0481 9.2362 18.1282 9.32273C18.209 9.40814 18.3388 9.45141 18.5183 9.45141C18.6598 9.45141 18.8382 9.39408 19.0527 9.28064C19.2685 9.1672 19.4661 9.02217 19.6456 8.84555V2.69944H21.5621ZM19.7663 17.0279C19.6721 16.9238 19.5224 16.87 19.3165 16.87C19.1014 16.87 18.947 16.9238 18.8535 17.0279C18.7599 17.1331 18.7131 17.3074 18.7131 17.5507V18.0548H19.9072V17.5507C19.9072 17.3074 19.8604 17.1331 19.7663 17.0279ZM14.1026 20.8232C14.2055 20.8653 14.3143 20.8852 14.4289 20.8852C14.595 20.8852 14.7154 20.8454 14.7938 20.7635C14.8721 20.6828 14.9107 20.5483 14.9107 20.3635V17.4489C14.9107 17.2525 14.8628 17.1039 14.7669 17.0022C14.6704 16.9004 14.5295 16.8501 14.347 16.8501C14.2505 16.8501 14.1552 16.8688 14.061 16.9063C13.9669 16.9448 13.8739 17.0045 13.7821 17.084V20.6185C13.8921 20.7144 13.999 20.7822 14.1026 20.8232ZM22.992 14.6525C22.992 13.249 21.5504 12.111 19.7738 12.111C17.2394 12.0256 14.6459 11.9882 12 11.9928C9.35499 11.9881 6.76144 12.0255 4.22612 12.111C2.45044 12.111 1.00894 13.249 1.00894 14.6525C0.90221 15.7624 0.855991 16.8735 0.860116 17.9846C0.856038 19.0957 0.90221 20.2068 1.00894 21.3179C1.00894 22.7202 2.45044 23.8582 4.22612 23.8582C6.76144 23.9424 9.35499 23.9798 12 23.9763C14.6459 23.9798 17.2394 23.9424 19.7738 23.8582C21.5504 23.8582 22.992 22.7202 22.992 21.3179C23.0984 20.2068 23.1445 19.0957 23.1398 17.9846C23.1445 16.8735 23.0984 15.7624 22.992 14.6525ZM5.68365 21.7249V21.8092H4.16148V21.7249V15.0771H2.58666V14.994V13.9344V13.8514H7.25879V13.9344V14.994V15.0771H5.68365V21.7249ZM11.0985 15.9998V21.7249V21.8092H9.74705V21.7249V21.1671C9.49735 21.4044 9.23855 21.5834 8.9693 21.7074C8.69944 21.8302 8.43802 21.8922 8.18424 21.8922C7.87196 21.8922 7.63655 21.8056 7.47807 21.6337C7.3193 21.4606 7.24004 21.201 7.24004 20.8547V20.7705V15.9998V15.9168H8.5921V15.9998V20.3693C8.5921 20.5062 8.62018 20.6068 8.67657 20.6676C8.73362 20.7296 8.8254 20.76 8.95201 20.76C9.05171 20.76 9.17715 20.7191 9.32921 20.6384C9.48066 20.5565 9.61983 20.4524 9.74705 20.3261V15.9998V15.9168H11.0985V15.9998ZM16.302 17.3835V20.5214V20.6056C16.302 21.0185 16.1961 21.3343 15.9845 21.5542C15.7727 21.7717 15.4663 21.8816 15.0663 21.8816C14.802 21.8816 14.567 21.8395 14.3599 21.7553C14.1523 21.6699 13.9599 21.5389 13.7821 21.3623V21.7249V21.8091H12.4178V21.7249V13.9344V13.8514H13.7821V13.9344V16.3858C13.9646 16.208 14.1576 16.0735 14.3623 15.9823C14.5675 15.8899 14.7752 15.8431 14.9844 15.8431C15.4113 15.8431 15.7388 15.9671 15.9639 16.2151C16.1891 16.463 16.302 16.8244 16.302 17.2993V17.3835ZM21.2984 17.5612V18.9566V19.0408H18.7131V20.0524C18.7131 20.3577 18.7575 20.5694 18.8464 20.6875C18.9359 20.8057 19.0879 20.8653 19.3031 20.8653C19.5271 20.8653 19.6844 20.815 19.7738 20.7144C19.8627 20.615 19.9072 20.394 19.9072 20.0524V19.7332V19.649H21.2984V19.7332V20.0852V20.1694C21.2984 20.7647 21.1294 21.2127 20.7903 21.5144C20.4516 21.8162 19.9458 21.9659 19.2727 21.9659C18.6675 21.9659 18.1915 21.8056 17.8435 21.4864C17.4961 21.1671 17.3219 20.7273 17.3219 20.1694V20.0852V17.5612V17.4782C17.3219 16.9741 17.5131 16.5636 17.8944 16.2455C18.2762 15.9285 18.7704 15.7695 19.3751 15.7695C19.9938 15.7695 20.4686 15.9168 20.8008 16.2104C21.1318 16.504 21.2984 16.9274 21.2984 17.4782V17.5612H21.2984Z" fill="#6C6C6C"/>
</g>
<defs>
<clipPath id="clip0_31_20231">
<rect width="24" height="24" fill="white"/>
</clipPath>
</defs>
</svg>
