<svg width="137" height="56" viewBox="0 0 137 56" fill="none" xmlns="http://www.w3.org/2000/svg">
<path d="M35.3 19.4649C34.7257 17.4137 32.9691 15.3625 30.7147 14.0964C29.5439 13.4303 28.2518 13.0048 26.9144 12.8447C25.5769 12.6846 24.2209 12.7932 22.9259 13.1641C21.9115 13.4568 18.8404 15.0754 17.0801 16.0114L12.6738 13.9249C12.5603 13.8719 12.4341 13.8519 12.3098 13.8672C12.1855 13.8825 12.0679 13.9326 11.9707 14.0115C11.8734 14.0905 11.8003 14.1953 11.7598 14.3138C11.7193 14.4324 11.7129 14.5599 11.7415 14.6819L12.7055 18.7525C12.7615 18.9891 12.7521 19.2365 12.6782 19.4681C12.6042 19.6997 12.4687 19.9068 12.286 20.0672L9.30247 22.6964C9.2077 22.7793 9.13833 22.8874 9.10238 23.0081C9.06643 23.1288 9.06535 23.2572 9.09928 23.3785C9.13321 23.4998 9.20076 23.609 9.29413 23.6935C9.3875 23.7781 9.50287 23.8345 9.62692 23.8562L13.7815 24.589C13.9923 24.6263 14.1911 24.7134 14.3614 24.8432C14.5317 24.9729 14.6685 25.1415 14.7604 25.3349L16.4834 28.9655C16.5367 29.0744 16.6186 29.1667 16.7205 29.2324C16.8224 29.2981 16.9403 29.3348 17.0615 29.3384C17.1832 29.3426 17.3038 29.3138 17.4105 29.2551C17.5172 29.1963 17.606 29.1098 17.6675 29.0046L19.8175 25.2603C19.9151 25.0895 20.0493 24.9424 20.2105 24.8295C20.3717 24.7167 20.5559 24.6409 20.7498 24.6077L25.1971 23.8059C25.3087 23.7653 25.4075 23.6956 25.4832 23.6041C25.5589 23.5126 25.6089 23.4026 25.6279 23.2853C25.6469 23.1681 25.6343 23.0479 25.5913 22.9371C25.5484 22.8264 25.4767 22.7291 25.3836 22.6553L20.7424 18.9502C20.4998 18.7653 20.1951 18.6815 19.8921 18.7163C19.5891 18.7511 19.3114 18.9018 19.117 19.1369C18.9227 19.3719 18.8269 19.6731 18.8497 19.9772C18.8725 20.2813 19.0122 20.5648 19.2394 20.7683L20.3023 21.6764C20.3491 21.7154 20.3838 21.7671 20.4022 21.8252C20.4206 21.8834 20.4219 21.9456 20.406 22.0045C20.3901 22.0634 20.3577 22.1165 20.3125 22.1575C20.2674 22.1985 20.2114 22.2256 20.1512 22.2358L19.1406 22.4223C18.965 22.4535 18.7984 22.5227 18.6525 22.6251C18.5066 22.7276 18.3849 22.8607 18.2959 23.0152L17.55 24.3205C17.5205 24.371 17.4778 24.4125 17.4266 24.4407C17.3754 24.469 17.3175 24.4828 17.2591 24.4809C17.2003 24.4785 17.1434 24.4597 17.0947 24.4268C17.0459 24.3939 17.0073 24.348 16.9831 24.2944L16.4069 23.0805C16.3232 22.9049 16.1989 22.7517 16.0442 22.6337C15.8896 22.5156 15.709 22.4361 15.5175 22.4017L14.2998 22.1873C14.2415 22.1772 14.1871 22.151 14.1428 22.1117C14.0985 22.0724 14.066 22.0216 14.0489 21.9649C14.0319 21.9081 14.031 21.8478 14.0463 21.7906C14.0617 21.7334 14.0926 21.6816 14.1358 21.641L15.0961 20.731C15.2528 20.5823 15.3675 20.3948 15.4284 20.1875C15.4893 19.9802 15.4943 19.7605 15.4429 19.5506L15.1445 18.3516C15.1278 18.2923 15.1285 18.2294 15.1468 18.1705C15.165 18.1117 15.1999 18.0593 15.2472 18.0199C15.2946 17.9804 15.3524 17.9555 15.4136 17.9482C15.4748 17.9409 15.5368 17.9515 15.5921 17.9787L16.6214 18.4672C16.7952 18.5492 16.9859 18.589 17.1781 18.5835C17.3702 18.578 17.5583 18.5273 17.7271 18.4355C19.6086 17.41 22.8718 15.7038 23.6196 15.4875C24.6045 15.2062 25.6358 15.1244 26.6528 15.2471C27.6697 15.3697 28.652 15.6943 29.5418 16.2016C31.2201 17.134 32.5664 18.6649 32.9654 20.0933C33.6404 22.5174 33.26 24.2683 31.6061 26.353C29.8439 28.5757 26.6758 31.08 22.2714 34.5577C20.0692 36.2974 17.5724 38.2703 14.7623 40.5918C14.7284 40.6215 14.6886 40.6435 14.6455 40.6564C14.6024 40.6692 14.557 40.6727 14.5124 40.6664C14.4687 40.6603 14.4268 40.6453 14.3893 40.6222C14.3517 40.599 14.3194 40.5684 14.2943 40.5322C12.989 38.6675 10.1472 34.5651 5.87143 28.2252C4.27526 25.857 3.48649 23.722 3.46038 21.6988C3.42495 18.9856 4.83093 16.4403 7.6373 14.1337C7.81204 13.9789 7.93875 13.7772 8.00242 13.5526C8.06609 13.328 8.06406 13.0899 7.99656 12.8664C7.92906 12.6429 7.79893 12.4434 7.62157 12.2916C7.44422 12.1398 7.22707 12.042 6.99584 12.0098C6.83366 11.9889 6.66892 12.0015 6.51177 12.0467C6.35463 12.0919 6.20841 12.1688 6.08214 12.2727C2.66416 15.0698 0.956104 18.2677 1.00086 21.7659C1.03442 24.2758 1.95931 26.8453 3.8296 29.6218C9.99613 38.7756 13.2146 43.2919 13.2444 43.3367L13.5913 43.8215C13.6447 43.8963 13.7131 43.9593 13.792 44.0064C13.8709 44.0536 13.9588 44.0839 14.05 44.0956C14.0785 44.0975 14.1072 44.0975 14.1358 44.0956C14.2924 44.0954 14.444 44.0407 14.5646 43.9408L15.0215 43.5585C18.3444 40.782 21.2253 38.5052 23.7855 36.482C28.3018 32.9149 31.5632 30.3286 33.5006 27.8914C34.5635 26.5526 35.2236 25.2529 35.5182 23.9215C35.8258 22.5472 35.7531 21.0871 35.3 19.4649Z" fill="#FF821E"/>
<path d="M57.9786 18.1334C59.6736 18.1334 60.5444 19.1012 60.5444 19.1012L59.7668 20.3636C59.7668 20.3636 59.0023 19.6643 58.0532 19.6643C56.7479 19.6643 56.1195 20.6321 56.1195 21.6185C56.1195 22.6329 56.7908 23.6697 58.0532 23.6697C59.0881 23.6697 59.8731 22.8269 59.8731 22.8269L60.7346 24.052C60.3778 24.4217 59.949 24.7144 59.4747 24.912C59.0003 25.1096 58.4905 25.2078 57.9767 25.2006C55.8323 25.2006 54.3872 23.679 54.3872 21.6484C54.3891 19.6699 55.9218 18.1334 57.9786 18.1334Z" fill="#FF821E"/>
<path d="M63.6619 18.2472H65.3401V23.6548H68.1371V25.0906H63.6619V18.2472Z" fill="#FF821E"/>
<path d="M70.8113 18.2472H72.4895V22.5751C72.4895 23.293 72.9576 23.6772 73.6755 23.6772C74.3934 23.6772 74.8633 23.293 74.8633 22.5751V18.2472H76.5415V22.5751C76.5415 24.1172 75.4115 25.2081 73.6885 25.2081C71.9655 25.2081 70.8169 24.1172 70.8169 22.5751L70.8113 18.2472Z" fill="#FF821E"/>
<path d="M79.9597 18.2472H82.4789C83.8476 18.2472 84.8042 18.8607 84.8042 20.0373C84.8093 20.3281 84.7388 20.6152 84.5995 20.8705C84.4603 21.1258 84.2571 21.3405 84.0098 21.4936V21.5123C84.7949 21.7528 85.082 22.4446 85.082 23.0544C85.082 24.5461 83.8383 25.0925 82.4715 25.0925H79.9597V18.2472ZM82.4976 20.9007C82.5803 20.9045 82.6628 20.8905 82.7396 20.8597C82.8165 20.8289 82.8858 20.7819 82.9429 20.722C83 20.662 83.0436 20.5905 83.0707 20.5123C83.0977 20.4341 83.1077 20.3509 83.0999 20.2685C83.0999 19.9515 82.9134 19.6849 82.4696 19.6849H81.6361V20.9007H82.4976ZM82.6411 23.6567C82.7377 23.6638 82.8346 23.6501 82.9254 23.6167C83.0162 23.5832 83.0988 23.5308 83.1677 23.4628C83.2366 23.3948 83.2901 23.3129 83.3247 23.2225C83.3593 23.1321 83.3742 23.0354 83.3684 22.9388C83.3747 22.8437 83.3604 22.7483 83.3263 22.6594C83.2922 22.5704 83.2392 22.4899 83.1709 22.4234C83.1026 22.3569 83.0207 22.306 82.9309 22.2743C82.841 22.2425 82.7454 22.2306 82.6505 22.2395H81.6361V23.6567H82.6411Z" fill="#FF821E"/>
<path d="M88.1809 18.2472H92.4697V19.6849H89.8591V20.9286H91.9457V22.3644H89.8573V23.6567H92.604V25.0925H88.1809V18.2472Z" fill="#FF821E"/>
<path d="M55.2318 35.7195C55.2318 35.7195 56.0075 36.4281 56.869 36.4281C57.214 36.4281 57.5869 36.2938 57.5869 35.8817C57.5869 35.0669 54.5046 35.0967 54.5046 32.9896C54.5046 31.7272 55.5656 30.8937 56.9287 30.8937C58.4018 30.8937 59.129 31.6694 59.129 31.6694L58.4204 33.0381C58.4204 33.0381 57.7324 32.4358 56.9082 32.4358C56.5632 32.4358 56.1809 32.5887 56.1809 32.9709C56.1809 33.8324 59.2633 33.6795 59.2633 35.8426C59.2633 36.9819 58.3925 37.9683 56.8522 37.9683C55.9254 37.9813 55.0303 37.6305 54.3591 36.9912L55.2318 35.7195Z" fill="#FF821E"/>
<path d="M62.2263 31.0092H63.9045V35.3334C63.9045 36.0513 64.3726 36.4354 65.0905 36.4354C65.8084 36.4354 66.2783 36.0513 66.2783 35.3334V31.0073H67.9565V35.3334C67.9565 36.8755 66.8377 37.9664 65.1054 37.9664C63.3731 37.9664 62.2319 36.8755 62.2319 35.3334L62.2263 31.0092Z" fill="#FF821E"/>
<path d="M71.3763 31.0093H74.2199C75.5495 31.0093 76.4576 31.9845 76.4576 33.3644C76.4576 34.7443 75.5569 35.7381 74.2199 35.7381H73.0508V37.8527H71.3726L71.3763 31.0093ZM73.875 34.3023C74.4586 34.3023 74.7458 33.9089 74.7458 33.37C74.7458 32.8311 74.4586 32.4507 73.9029 32.4507H73.0508V34.3154L73.875 34.3023Z" fill="#FF821E"/>
<path d="M79.3569 31.0093H83.6457V32.4451H81.0352V33.6888H83.1217V35.1247H81.0333V36.4169H83.78V37.8527H79.3569V31.0093Z" fill="#FF821E"/>
<path d="M86.8979 31.0093H89.2829C89.9821 31.0093 90.3159 31.0559 90.6124 31.1715C91.3881 31.468 91.8767 32.1672 91.8767 33.163C91.8767 33.8902 91.5317 34.6846 90.853 35.0277V35.0463C90.947 35.1784 91.0329 35.316 91.1103 35.4584L92.4417 37.8508H90.577L89.3612 35.5442H88.5762V37.8508H86.8979V31.0093ZM89.3015 34.1103C89.8367 34.1103 90.1723 33.8138 90.1723 33.2674C90.1723 32.7509 89.9859 32.4451 89.1393 32.4451H88.5799V34.1103H89.3015Z" fill="#FF821E"/>
<path d="M95.3394 31.0093H97.0344L98.9252 34.2147C99.1372 34.5939 99.3289 34.9842 99.4995 35.3838H99.52C99.52 35.3838 99.4435 34.638 99.4435 34.2147V31.0093H101.122V37.8527H99.4435L97.5378 34.6659C97.3255 34.2874 97.1338 33.8978 96.9635 33.4986H96.943C96.943 33.4986 97.0213 34.2352 97.0213 34.6659V37.8527H95.3431L95.3394 31.0093Z" fill="#FF821E"/>
<path d="M107.753 30.8937C109.821 30.8937 111.335 32.4246 111.335 34.3881C111.313 35.3237 110.927 36.2139 110.257 36.868C109.588 37.5222 108.689 37.8885 107.753 37.8885C106.818 37.8885 105.919 37.5222 105.25 36.868C104.58 36.2139 104.194 35.3237 104.172 34.3881C104.172 32.4246 105.685 30.8937 107.753 30.8937ZM107.753 36.4374C108.778 36.4374 109.6 35.5554 109.6 34.3862C109.6 33.2674 108.778 32.4227 107.753 32.4227C106.727 32.4227 105.905 33.2656 105.905 34.3862C105.905 35.5554 106.729 36.4374 107.753 36.4374Z" fill="#FF821E"/>
<path d="M114.757 35.7195C114.757 35.7195 115.532 36.4281 116.394 36.4281C116.739 36.4281 117.112 36.2938 117.112 35.8817C117.112 35.0669 114.029 35.0967 114.029 32.9896C114.029 31.7272 115.092 30.8937 116.454 30.8937C117.929 30.8937 118.656 31.6694 118.656 31.6694L117.947 33.0381C117.947 33.0381 117.257 32.4358 116.435 32.4358C116.09 32.4358 115.708 32.5887 115.708 32.9709C115.708 33.8324 118.79 33.6795 118.79 35.8426C118.79 36.9819 117.919 37.9683 116.377 37.9683C115.448 37.9842 114.55 37.6331 113.878 36.9912L114.757 35.7195Z" fill="#FF821E"/>
<path d="M122.223 35.7195C122.223 35.7195 122.998 36.4281 123.86 36.4281C124.203 36.4281 124.578 36.2938 124.578 35.8817C124.578 35.0669 121.496 35.0967 121.496 32.9896C121.496 31.7272 122.557 30.8937 123.92 30.8937C125.395 30.8937 126.122 31.6694 126.122 31.6694L125.413 33.0381C125.413 33.0381 124.725 32.4358 123.901 32.4358C123.556 32.4358 123.174 32.5887 123.174 32.9709C123.174 33.8324 126.256 33.6795 126.256 35.8426C126.256 36.9819 125.385 37.9683 123.843 37.9683C122.914 37.9828 122.017 37.6319 121.344 36.9912L122.223 35.7195Z" fill="#FF821E"/>
<path d="M132.425 30.8937C134.493 30.8937 136.005 32.4246 136.005 34.3881C136.005 35.3376 135.628 36.2483 134.956 36.9197C134.285 37.5911 133.374 37.9683 132.425 37.9683C131.475 37.9683 130.565 37.5911 129.893 36.9197C129.222 36.2483 128.844 35.3376 128.844 34.3881C128.844 32.4246 130.357 30.8937 132.425 30.8937ZM132.425 36.4374C133.45 36.4374 134.273 35.5554 134.273 34.3862C134.273 33.2674 133.45 32.4227 132.425 32.4227C131.399 32.4227 130.577 33.2656 130.577 34.3862C130.577 35.5554 131.401 36.4374 132.425 36.4374Z" fill="#FF821E"/>
<path d="M45.4947 13.0952H44.5996V43.0086H45.4947V13.0952Z" fill="#FF821E"/>
</svg>
