<svg width="87" height="40" viewBox="0 0 87 40" fill="none" xmlns="http://www.w3.org/2000/svg">
<path d="M56.6167 14.754C56.9189 14.763 57.2197 14.7087 57.4992 14.5945L57.0531 17.1573C56.7666 17.2208 56.4739 17.2529 56.1803 17.253C53.6667 17.253 52.5266 15.679 52.5217 13.9598C52.5232 13.3861 52.6395 12.8184 52.864 12.2895C53.0885 11.7607 53.4167 11.2812 53.8296 10.8788C54.2425 10.4764 54.7319 10.1591 55.2695 9.9453C55.8071 9.7315 56.3821 9.62543 56.9613 9.63324C57.4302 9.62834 57.8986 9.6657 58.3607 9.74487L57.9146 12.2678C57.55 12.1551 57.1694 12.1012 56.7874 12.1083C56.5919 12.1024 56.3972 12.1361 56.2152 12.2073C56.0333 12.2786 55.868 12.3859 55.7294 12.5226C55.5908 12.6594 55.4819 12.8228 55.4094 13.0027C55.3369 13.1827 55.3022 13.3754 55.3076 13.5691C55.3108 14.1735 55.7005 14.7556 56.6167 14.754Z" fill="#EC1C24"/>
<path d="M63.087 15.2708L62.7649 17.1367L58.0193 17.1462L59.3173 9.70508H61.7327L60.7569 15.2867L63.087 15.2708Z" fill="#EC1C24"/>
<path d="M66.4106 14.5772C66.405 14.6484 66.4145 14.72 66.4385 14.7874C66.4626 14.8548 66.5007 14.9164 66.5503 14.9683C66.6 15.0201 66.6601 15.0611 66.7267 15.0885C66.7933 15.1159 66.8651 15.1291 66.9372 15.1274C67.1138 15.1371 67.2873 15.0783 67.4208 14.9633C67.5544 14.8484 67.6373 14.6864 67.6522 14.5118L68.4927 9.68604H70.9082L70.0258 14.7095C69.7037 16.5244 68.4654 17.2037 66.665 17.2085C65.066 17.2085 63.9597 16.3697 63.9565 14.9631C63.9599 14.7254 63.9841 14.4885 64.029 14.255L64.8341 9.70039H67.2496L66.4444 14.2646C66.4231 14.3675 66.4118 14.4721 66.4106 14.5772Z" fill="#EC1C24"/>
<path d="M76.19 13.156C76.7375 13.3155 77.3816 13.7477 77.3832 14.8098C77.3848 15.8719 76.694 17.1031 74.264 17.1094L70.6135 17.1174L71.9114 9.67627H75.4363C76.6457 9.67627 77.3687 10.3588 77.3687 11.4209C77.3784 12.3826 76.9371 12.9822 76.19 13.156ZM73.9758 15.183C74.3333 15.183 74.6795 15.0347 74.6795 14.5658C74.6781 14.5025 74.6638 14.4401 74.6373 14.3824C74.6108 14.3247 74.5728 14.273 74.5255 14.2303C74.4782 14.1876 74.4226 14.155 74.3622 14.1342C74.3017 14.1135 74.2377 14.1051 74.1738 14.1097H73.5635L73.3655 15.1846L73.9758 15.183ZM74.264 12.3443C74.3497 12.3491 74.4354 12.3364 74.5159 12.307C74.5964 12.2776 74.6699 12.232 74.7319 12.1732C74.7938 12.1144 74.8429 12.0436 74.876 11.9652C74.9091 11.8868 74.9255 11.8025 74.9242 11.7176C74.9243 11.6566 74.9119 11.5962 74.888 11.54C74.8641 11.4838 74.829 11.433 74.7848 11.3905C74.7407 11.3479 74.6884 11.3146 74.631 11.2924C74.5736 11.2703 74.5124 11.2598 74.4508 11.2615H74.0499L73.8647 12.3443H74.264Z" fill="#EC1C24"/>
<path d="M80.9838 11.5084L80.8228 12.4653H83.1159L82.7938 14.3311H80.4911L80.3301 15.2274H82.76L82.4283 17.0933L77.5893 17.1044L78.8856 9.66328L83.7359 9.64893L83.4138 11.5036L80.9838 11.5084Z" fill="#EC1C24"/>
<path d="M33.4589 15.6186L31.4444 19.6406L25.2077 31.4307H31.4009L32.2544 29.308L36.1046 29.2969L36.2013 31.4307H41.9452L39.7214 15.6011L33.4589 15.6186ZM35.9404 25.5811H33.7681L35.7198 20.7537L35.9404 25.5811Z" fill="#0B2D72"/>
<path d="M42.2094 31.4306H46.5572L47.2303 27.8679C47.2303 27.8679 53.4719 28.5457 54.1547 24.3435C54.9727 19.3375 49.5347 19.607 49.5347 19.607L44.3737 19.6214L42.2094 31.4306ZM50.0806 23.6785C49.8729 25.0819 47.765 24.7948 47.765 24.7948L48.1659 22.6036C48.1659 22.6036 50.2754 22.417 50.0806 23.6785Z" fill="#0B2D72"/>
<path d="M83.4444 26.4678C83.5789 25.9094 83.6459 25.3371 83.6441 24.763C83.6443 24.2399 83.5739 23.7192 83.4347 23.2145C83.1943 22.3561 82.7143 21.5823 82.0499 20.9819C80.9919 20.0107 79.6183 19.5338 77.9162 19.5386C77.7713 19.5386 77.6215 19.5386 77.4782 19.5514C76.6622 19.5959 75.8609 19.7855 75.1127 20.1111C74.262 20.4831 73.509 21.0434 72.9114 21.7489C72.4032 22.3289 72.0103 22.9987 71.7536 23.7233C71.6466 24.036 71.5616 24.3557 71.4991 24.6801C71.4161 25.1385 71.3752 25.6034 71.3768 26.0692C71.3774 26.4702 71.4212 26.8701 71.5072 27.262C71.5787 27.6067 71.6867 27.9429 71.8292 28.2651C72.1193 28.929 72.5562 29.5198 73.1078 29.9939C73.6278 30.4323 74.2296 30.7656 74.8792 30.9746C75.595 31.196 76.3418 31.3037 77.0917 31.2936C77.2367 31.2936 77.38 31.2856 77.5233 31.2792C78.3449 31.2394 79.1526 31.0541 79.9082 30.7322C80.6808 30.3803 81.3746 29.8791 81.949 29.258C82.5233 28.6369 82.9666 27.9084 83.2528 27.1153C83.3295 26.9034 83.3934 26.6872 83.4444 26.4678ZM78.921 26.857C78.5597 27.266 78.0498 27.517 77.5024 27.5555C77.4412 27.5555 77.3816 27.5555 77.322 27.5555C77.0689 27.5673 76.8162 27.5269 76.5797 27.4369C76.3432 27.3468 76.1283 27.2091 75.9484 27.0324C75.6054 26.6879 75.4363 26.2143 75.4347 25.6258C75.4231 25.3159 75.4732 25.0069 75.5824 24.7162C75.6915 24.4256 75.8575 24.1592 76.0708 23.9322C76.436 23.5308 76.945 23.2864 77.4895 23.2512C77.5491 23.2512 77.6086 23.2512 77.6682 23.2512C77.9193 23.242 78.1695 23.2845 78.4031 23.3759C78.6368 23.4673 78.8488 23.6057 79.0257 23.7823C79.2051 23.9607 79.3454 24.1739 79.4376 24.4086C79.5299 24.6432 79.5722 24.8942 79.5619 25.1458C79.5819 25.7771 79.3519 26.3912 78.921 26.857Z" fill="#0B2D72"/>
<path d="M72.1788 19.5337L67.8133 19.5464L65.6506 31.4306H70.0274L72.1788 19.5337Z" fill="#0B2D72"/>
<path d="M66.2577 23.2634C66.0173 22.405 65.5373 21.6311 64.8728 21.0307C63.8149 20.0595 62.4413 19.5827 60.7392 19.5874C60.5942 19.5874 60.4445 19.5874 60.3012 19.6018C59.4852 19.6458 58.6839 19.8349 57.9356 20.16C57.5386 20.3334 57.1608 20.5471 56.8084 20.7979C56.4078 21.0832 56.0453 21.4175 55.7295 21.793C55.2208 22.3725 54.8278 23.0425 54.5717 23.7673C54.4647 24.08 54.3797 24.3998 54.3173 24.7242C54.2335 25.1825 54.1925 25.6474 54.1949 26.1132C54.1956 26.5143 54.2393 26.9142 54.3253 27.3061C54.3969 27.6507 54.5048 27.9869 54.6474 28.3092C54.9359 28.9762 55.373 29.5699 55.926 30.0459C56.2078 30.2844 56.5151 30.4919 56.8422 30.6646C57.1145 30.8085 57.3983 30.9296 57.6909 31.0267C58.4067 31.2481 59.1535 31.3557 59.9034 31.3456C60.0484 31.3456 60.1917 31.3456 60.335 31.3328C61.1565 31.2917 61.9641 31.106 62.7199 30.7843C63.495 30.4335 64.1914 29.9327 64.7681 29.3112C65.3447 28.6898 65.7899 27.9603 66.0773 27.1657C66.1535 26.9538 66.2169 26.7376 66.2674 26.5183C66.4022 25.9599 66.4687 25.3875 66.4654 24.8135C66.4662 24.2899 66.3963 23.7686 66.2577 23.2634ZM61.7488 26.9106C61.3883 27.3198 60.8788 27.5709 60.3318 27.6091C60.2706 27.6091 60.211 27.6091 60.1514 27.6091C59.8981 27.6202 59.6451 27.5793 59.4085 27.489C59.1718 27.3987 58.9566 27.261 58.7762 27.0844C58.4348 26.7415 58.2657 26.2663 58.2641 25.6794C58.2532 25.369 58.3045 25.0595 58.415 24.7688C58.5256 24.4781 58.6932 24.2119 58.9083 23.9858C59.2725 23.5831 59.7821 23.3385 60.3269 23.3048C60.3865 23.3048 60.4461 23.3048 60.5057 23.3048C60.7563 23.2956 61.0062 23.3378 61.2396 23.429C61.4729 23.5201 61.6847 23.6581 61.8616 23.8343C62.0412 24.0126 62.1817 24.2258 62.2742 24.4604C62.3668 24.6951 62.4094 24.9461 62.3994 25.1978C62.4156 25.832 62.1797 26.447 61.7424 26.9106H61.7488Z" fill="#0B2D72"/>
<path d="M20.8985 13.4604C20.6163 13.4604 20.3404 13.5434 20.1057 13.6987C19.8711 13.854 19.6882 14.0748 19.5803 14.3331C19.4723 14.5913 19.4442 14.8755 19.4993 15.1496C19.5545 15.4238 19.6906 15.6755 19.8903 15.8731C20.0899 16.0706 20.3443 16.2051 20.6212 16.2594C20.898 16.3137 21.185 16.2855 21.4456 16.1783C21.7063 16.0712 21.929 15.8898 22.0856 15.6572C22.2422 15.4247 22.3256 15.1513 22.3253 14.8718C22.3248 14.4973 22.1743 14.1384 21.9068 13.8737C21.6393 13.6091 21.2766 13.4604 20.8985 13.4604Z" fill="#0B2D72"/>
<path d="M16.953 11.8424C17.5102 11.2906 17.5102 10.3959 16.953 9.84415C16.3958 9.29236 15.4925 9.29236 14.9353 9.84415C14.3781 10.3959 14.3781 11.2906 14.9353 11.8424C15.4925 12.3942 16.3958 12.3942 16.953 11.8424Z" fill="#0B2D72"/>
<path d="M21.2174 9.85844C21.1753 9.81621 21.1251 9.78267 21.0698 9.75978C21.0146 9.73689 20.9552 9.7251 20.8953 9.7251C20.8354 9.7251 20.7761 9.73689 20.7208 9.75978C20.6655 9.78267 20.6153 9.81621 20.5732 9.85844L15.1739 15.2152C15.1312 15.2569 15.0974 15.3066 15.0743 15.3613C15.0511 15.4161 15.0392 15.4748 15.0392 15.5342C15.0392 15.5935 15.0511 15.6523 15.0743 15.707C15.0974 15.7618 15.1312 15.8115 15.1739 15.8531C15.2159 15.8956 15.266 15.9293 15.3213 15.9523C15.3766 15.9753 15.436 15.9872 15.496 15.9872C15.5559 15.9872 15.6153 15.9753 15.6706 15.9523C15.7259 15.9293 15.776 15.8956 15.818 15.8531L21.2238 10.4995C21.2665 10.4574 21.3003 10.4072 21.3232 10.3519C21.346 10.2966 21.3575 10.2374 21.3569 10.1776C21.3563 10.1179 21.3436 10.0589 21.3197 10.0041C21.2957 9.94928 21.2609 9.89976 21.2174 9.85844Z" fill="#0B2D72"/>
<path d="M24.0418 17.5514L26.6441 18.0745L25.0756 15.9519L27.7262 15.7924L25.6569 14.1434L28.1803 13.3014L25.7503 12.2393L27.9629 10.7865L25.3397 10.383L27.0982 8.41187L24.4573 8.69574L25.6408 6.34187L23.1642 7.29873L23.6908 4.72L21.5426 6.26851L21.3816 3.64354L19.7149 5.69281L18.8695 3.2002L17.797 5.60509L16.33 3.41389L15.9226 6.01335L13.9323 4.27187L14.2189 6.88569L11.8421 5.71513L12.8083 8.16787L10.198 7.64479L11.7664 9.76742L9.11587 9.92689L11.1851 11.5791L8.6666 12.4147L11.0965 13.4768L8.88399 14.9313L11.5072 15.3331L9.75033 17.3043L12.3896 17.0204L11.5941 18.6024H24.4508L24.0418 17.5514ZM14.5168 10.8423C14.5168 10.5628 14.6005 10.2896 14.7573 10.0573C14.9141 9.82493 15.1369 9.64383 15.3976 9.53688C15.6583 9.42994 15.9452 9.40196 16.2219 9.45648C16.4987 9.511 16.7529 9.64557 16.9524 9.84317C17.152 10.0408 17.2878 10.2925 17.3429 10.5666C17.3979 10.8407 17.3697 11.1248 17.2617 11.383C17.1537 11.6412 16.9708 11.8619 16.7362 12.0171C16.5016 12.1724 16.2257 12.2552 15.9436 12.2552C15.5653 12.2548 15.2027 12.1058 14.9352 11.8409C14.6677 11.576 14.5173 11.2169 14.5168 10.8423ZM15.4927 15.9742C15.3721 15.9744 15.2564 15.9274 15.1706 15.8435C15.128 15.8018 15.0941 15.7521 15.071 15.6974C15.0479 15.6426 15.036 15.5838 15.036 15.5245C15.036 15.4652 15.0479 15.4064 15.071 15.3516C15.0941 15.2969 15.128 15.2472 15.1706 15.2055L20.5796 9.85832C20.6651 9.77373 20.7809 9.7262 20.9017 9.7262C21.0225 9.7262 21.1383 9.77373 21.2238 9.85832C21.3092 9.94291 21.3572 10.0576 21.3572 10.1773C21.3572 10.2969 21.3092 10.4116 21.2238 10.4962L15.818 15.8498C15.7747 15.8908 15.7237 15.9228 15.6679 15.9442C15.612 15.9655 15.5525 15.9757 15.4927 15.9742ZM20.8985 16.2932C20.6163 16.2932 20.3405 16.2103 20.1058 16.055C19.8712 15.8998 19.6883 15.6791 19.5804 15.4209C19.4724 15.1627 19.4441 14.8787 19.4992 14.6046C19.5542 14.3305 19.6901 14.0787 19.8896 13.8811C20.0892 13.6835 20.3434 13.5489 20.6201 13.4944C20.8969 13.4399 21.1838 13.4679 21.4445 13.5748C21.7052 13.6818 21.928 13.8629 22.0848 14.0952C22.2415 14.3276 22.3252 14.6008 22.3252 14.8802C22.3239 15.2541 22.1731 15.6123 21.9056 15.8762C21.6382 16.1402 21.276 16.2884 20.8985 16.2884V16.2932Z" fill="#FFD400"/>
<path d="M27.7762 18.602H9.35588C9.08339 18.6028 8.81968 18.5066 8.61279 18.331C8.40589 18.1553 8.26958 17.912 8.22867 17.6452L8.02094 16.3183C7.83092 15.0951 6.6715 14.0952 5.44445 14.0952H4.35749C4.20792 14.0952 4.05983 14.1244 3.92168 14.1812C3.78354 14.238 3.65807 14.3212 3.55246 14.4261C3.44685 14.531 3.36317 14.6555 3.30623 14.7925C3.24929 14.9294 3.22019 15.0762 3.22062 15.2243C3.22104 15.5228 3.34096 15.8089 3.55407 16.02C3.76718 16.231 4.0561 16.3498 4.35749 16.3502H4.79872C5.07121 16.3494 5.33492 16.4456 5.54181 16.6213C5.7487 16.7969 5.88502 17.0403 5.92593 17.3071L7.8905 29.8546C7.93173 30.1213 8.06813 30.3645 8.27496 30.5401C8.48178 30.7156 8.74531 30.8119 9.01772 30.8115H22.5604C22.7687 30.8116 22.9731 30.7549 23.1512 30.6478C23.3292 30.5406 23.4741 30.3871 23.5701 30.2039L28.7842 20.2494C28.8748 20.0778 28.9191 19.8859 28.913 19.6923C28.9068 19.4987 28.8503 19.31 28.7489 19.1444C28.6476 18.9788 28.5048 18.8418 28.3344 18.7468C28.164 18.6518 27.9717 18.6019 27.7762 18.602Z" fill="#EC1C24"/>
<path d="M11.0822 32.7255C10.6764 32.7176 10.2775 32.8295 9.93616 33.047C9.59486 33.2645 9.32668 33.5777 9.16583 33.9468C9.00497 34.3158 8.95871 34.7239 9.03296 35.119C9.1072 35.5142 9.29858 35.8785 9.58269 36.1655C9.86681 36.4526 10.2308 36.6493 10.6283 36.7307C11.0257 36.8121 11.4386 36.7744 11.8144 36.6225C12.1901 36.4705 12.5117 36.2112 12.738 35.8776C12.9644 35.544 13.0854 35.1512 13.0854 34.7492C13.0882 34.4861 13.0386 34.2249 12.9394 33.9808C12.8402 33.7366 12.6933 33.5142 12.5073 33.3262C12.3213 33.1383 12.0997 32.9885 11.8551 32.8854C11.6106 32.7823 11.348 32.728 11.0822 32.7255Z" fill="#EC1C24"/>
<path d="M20.0934 32.7255C19.6876 32.7176 19.2887 32.8295 18.9474 33.047C18.6061 33.2645 18.3379 33.5777 18.177 33.9468C18.0162 34.3158 17.9699 34.7239 18.0442 35.119C18.1184 35.5142 18.3098 35.8785 18.5939 36.1655C18.878 36.4526 19.242 36.6493 19.6395 36.7307C20.0369 36.8121 20.4498 36.7744 20.8256 36.6225C21.2013 36.4705 21.5229 36.2112 21.7493 35.8776C21.9756 35.544 22.0966 35.1512 22.0966 34.7492C22.0994 34.4861 22.0498 34.2249 21.9506 33.9808C21.8514 33.7366 21.7045 33.5142 21.5185 33.3262C21.3325 33.1383 21.1109 32.9885 20.8663 32.8854C20.6218 32.7823 20.3592 32.728 20.0934 32.7255Z" fill="#EC1C24"/>
<path d="M25.5732 35.9773L25.4734 34.6792H24.8486L24.3993 36.7524H24.9178L25.0627 35.955C25.1014 35.7573 25.1271 35.585 25.1449 35.4096L25.2511 36.5403H25.7487L26.1674 35.3554C26.1368 35.5723 26.1175 35.77 26.1014 35.9295L26.0257 36.7524H26.5426L26.6795 34.6792H26.0144L25.5732 35.9773Z" fill="#0B2D72"/>
<path d="M26.897 36.7204L26.8922 36.7507H28.1772L28.2319 36.3552H27.4767L27.5411 35.8911H28.1595L28.211 35.5036H27.5942L27.657 35.073H28.3591L28.4751 34.6807H27.1852L26.897 36.7204Z" fill="#0B2D72"/>
<path d="M29.4412 35.5354V35.9245H29.6972L29.6376 36.3391C29.5563 36.378 29.4671 36.3982 29.3767 36.3981C29.1626 36.3981 29.0708 36.2817 29.0708 36.0106C29.0708 35.5322 29.2318 35.0283 29.665 35.0283C29.8015 35.0265 29.9335 35.0768 30.0337 35.1686L30.0515 35.1813L30.3526 34.9134L30.3333 34.8943C30.2481 34.8063 30.1451 34.7372 30.031 34.6916C29.917 34.6459 29.7944 34.6248 29.6714 34.6296C28.8824 34.6296 28.5297 35.3026 28.5297 35.9692C28.5297 36.5114 28.8131 36.7984 29.3478 36.7984C29.6176 36.7977 29.8822 36.7238 30.1127 36.5847L30.1239 36.5768L30.2672 35.537L29.4412 35.5354Z" fill="#0B2D72"/>
<path d="M31.1465 34.679L30.2479 36.7139L30.2318 36.749H30.7842L30.9452 36.3152H31.4943L31.5346 36.749H32.0869L31.7649 34.6758L31.1465 34.679ZM31.4557 35.9165H31.0917L31.38 35.1415L31.4557 35.9165Z" fill="#0B2D72"/>
<path d="M33.1722 34.6792H32.5974L32.3091 36.7205V36.7492H32.9532C33.979 36.7492 34.132 35.9518 34.132 35.4734C34.1159 34.9391 33.8051 34.6792 33.1722 34.6792ZM33.5845 35.4766C33.5845 35.7413 33.5297 36.3585 33.0144 36.3585H32.8888L33.0692 35.0827H33.2028C33.4251 35.0779 33.578 35.1497 33.578 35.4686L33.5845 35.4766Z" fill="#0B2D72"/>
<path d="M35.7713 35.073L35.8873 34.6807H34.5974L34.3092 36.7204L34.3044 36.7507H35.5894L35.6441 36.3552H34.8873L34.9533 35.8911H35.5717L35.6232 35.5036H35.0048L35.0692 35.073H35.7713Z" fill="#0B2D72"/>
<path d="M36.8761 35.0314C36.9491 35.0302 37.0216 35.0437 37.0891 35.0711C37.1567 35.0985 37.2179 35.1393 37.269 35.1909L37.2883 35.2084L37.5766 34.9229L37.5589 34.9038C37.4682 34.8128 37.3594 34.7415 37.2393 34.6946C37.1192 34.6476 36.9906 34.626 36.8616 34.6311C36.2996 34.6311 36.0436 34.9708 36.0436 35.2865C36.0436 35.5688 36.2046 35.7458 36.6023 35.875C36.8584 35.9659 36.9051 36.0345 36.9051 36.1366C36.9051 36.296 36.7811 36.3853 36.5734 36.3853C36.4872 36.388 36.4015 36.3723 36.322 36.3393C36.2426 36.3063 36.1712 36.2567 36.1128 36.194L36.0935 36.1764L35.7843 36.4794L35.8004 36.4986C35.8986 36.5989 36.017 36.6776 36.148 36.7296C36.2789 36.7815 36.4195 36.8055 36.5605 36.8C37.2223 36.8 37.4574 36.4045 37.4574 36.0632C37.4574 35.7682 37.2964 35.5848 36.9163 35.4652C36.6378 35.3743 36.5943 35.3216 36.5943 35.2307C36.5895 35.1063 36.699 35.0314 36.8761 35.0314Z" fill="#0B2D72"/>
<path d="M38.8084 35.0349C38.928 35.0365 39.0427 35.082 39.1304 35.1625L39.1481 35.1769L39.438 34.8962L39.4219 34.8771C39.3421 34.7939 39.2451 34.7287 39.1375 34.6861C39.03 34.6434 38.9144 34.6242 38.7987 34.6299C38.0628 34.6299 37.7262 35.3092 37.7262 35.9408C37.7262 36.4782 38.0257 36.7987 38.5314 36.7987C38.7861 36.7987 39.0317 36.7049 39.2206 36.5356L39.2367 36.5213L39.0241 36.2023L39.0016 36.2182C38.8909 36.3132 38.7517 36.3693 38.6055 36.3777C38.3848 36.3777 38.2721 36.231 38.2721 35.9408C38.2657 35.6282 38.3784 35.0349 38.8084 35.0349Z" fill="#0B2D72"/>
<path d="M40.5346 34.6294C39.6731 34.6294 39.4445 35.4571 39.4445 35.9451C39.4445 36.4873 39.7375 36.7983 40.2496 36.7983C40.4201 36.8044 40.5891 36.7657 40.7396 36.6861C40.8901 36.6066 41.0166 36.489 41.1063 36.3454C41.2617 36.0842 41.3414 35.7857 41.3366 35.4826C41.3366 34.9404 41.0451 34.6294 40.5346 34.6294ZM40.7971 35.4427C40.7971 35.54 40.7826 36.3996 40.2818 36.3996C40.1433 36.3996 39.9839 36.3517 39.9839 35.9818C39.9839 35.6118 40.0918 35.0249 40.4992 35.0249C40.7053 35.0313 40.7971 35.1573 40.7971 35.4427Z" fill="#0B2D72"/>
<path d="M42.8228 35.4973C42.7954 35.6853 42.7824 35.8751 42.7842 36.065L42.4621 34.6792H41.818L41.5297 36.7205V36.7492H42.0032L42.1094 36.0108C42.1414 35.7921 42.1581 35.5715 42.1594 35.3506L42.4814 36.7301V36.7492H43.1255L43.4138 34.7095V34.6792H42.942L42.8228 35.4973Z" fill="#0B2D72"/>
<path d="M43.6941 34.6807L43.6345 35.0985H44.1546L43.9244 36.7204L43.9195 36.7507H44.4461L44.6812 35.0985H45.1724L45.2899 34.6807H43.6941Z" fill="#0B2D72"/>
<path d="M46.2705 34.6294C45.409 34.6294 45.1787 35.4571 45.1787 35.9451C45.1787 36.4873 45.4734 36.7983 45.9838 36.7983C46.1543 36.8044 46.3233 36.7657 46.4738 36.6861C46.6243 36.6066 46.7508 36.489 46.8405 36.3454C46.996 36.0842 47.0756 35.7857 47.0708 35.4826C47.0724 34.9404 46.7793 34.6294 46.2705 34.6294ZM46.5313 35.4427C46.5313 35.54 46.5168 36.3996 46.0176 36.3996C45.8792 36.3996 45.7197 36.3517 45.7197 35.9818C45.7197 35.6118 45.8276 35.0249 46.235 35.0249C46.4395 35.0313 46.5378 35.1573 46.5378 35.4427H46.5313Z" fill="#0B2D72"/>
<path d="M48.2207 35.0314C48.2937 35.0302 48.3662 35.0437 48.4337 35.0711C48.5013 35.0985 48.5625 35.1393 48.6136 35.1909L48.6329 35.2084L48.9212 34.9229L48.9035 34.9038C48.8128 34.8128 48.7039 34.7415 48.5839 34.6946C48.4638 34.6476 48.3352 34.626 48.2062 34.6311C47.6442 34.6311 47.3882 34.9708 47.3882 35.2865C47.3882 35.5688 47.5492 35.7458 47.9469 35.875C48.203 35.9659 48.2497 36.0345 48.2497 36.1366C48.2497 36.296 48.1257 36.3853 47.918 36.3853C47.8318 36.388 47.7461 36.3723 47.6666 36.3393C47.5872 36.3063 47.5158 36.2567 47.4574 36.194L47.4381 36.1764L47.1289 36.4794L47.145 36.4986C47.2432 36.5989 47.3616 36.6776 47.4926 36.7296C47.6235 36.7815 47.7641 36.8055 47.9051 36.8C48.5669 36.8 48.802 36.4045 48.802 36.0632C48.802 35.7682 48.641 35.5848 48.2609 35.4652C47.9824 35.3743 47.9389 35.3216 47.9389 35.2307C47.9373 35.1063 48.0452 35.0314 48.2207 35.0314Z" fill="#0B2D72"/>
<path d="M50.467 35.8911H51.0837L51.1352 35.5036H50.5185L50.5813 35.073H51.2834L51.3993 34.6807H50.1095L49.8212 36.7204L49.8164 36.7507H51.1014L51.1562 36.3552H50.4009L50.467 35.8911Z" fill="#0B2D72"/>
<path d="M53.2738 34.6807H52.6989L52.3205 35.3058L52.1401 34.6807H51.5733L51.9678 35.6487L51.2335 36.7507H51.81L52.2335 36.0027L52.459 36.7507H53.0258L52.591 35.6407L53.2738 34.6807Z" fill="#0B2D72"/>
<path d="M54.3172 35.0349C54.4368 35.0364 54.5515 35.0819 54.6392 35.1624L54.6569 35.1768L54.9468 34.8961L54.9307 34.877C54.8511 34.794 54.7544 34.729 54.6471 34.6863C54.5398 34.6437 54.4246 34.6244 54.3091 34.6298C53.5716 34.6298 53.235 35.3092 53.235 35.9407C53.235 36.4781 53.5346 36.7987 54.0402 36.7987C54.2945 36.7987 54.5396 36.7049 54.7278 36.5355L54.7439 36.5212L54.5313 36.2022L54.5088 36.2182C54.3981 36.3132 54.2589 36.3692 54.1127 36.3777C53.8921 36.3777 53.7809 36.2309 53.7809 35.9407C53.7842 35.6281 53.8937 35.0349 54.3172 35.0349Z" fill="#0B2D72"/>
<path d="M55.7972 34.6807H55.2722L54.9823 36.7204L54.9791 36.7507H56.2384L56.3511 36.3201H55.5685L55.7972 34.6807Z" fill="#0B2D72"/>
<path d="M58.3945 34.6792H57.8679L57.6747 36.0268C57.6393 36.2756 57.5298 36.392 57.3301 36.392C57.297 36.3952 57.2636 36.3913 57.2322 36.3806C57.2008 36.3699 57.1721 36.3525 57.1481 36.3298C57.1218 36.2873 57.1046 36.2398 57.0977 36.1904C57.0908 36.141 57.0942 36.0907 57.1079 36.0427L57.2963 34.7095V34.6792H56.7697L56.5748 36.0443C56.5557 36.1387 56.5574 36.236 56.5799 36.3296C56.6024 36.4232 56.6452 36.5109 56.7053 36.5865C56.7817 36.6613 56.8734 36.7189 56.9743 36.7554C57.0751 36.792 57.1827 36.8068 57.2898 36.7986C57.7858 36.7986 58.132 36.5164 58.1948 36.0603L58.3848 34.7095L58.3945 34.6792Z" fill="#0B2D72"/>
<path d="M59.4557 35.0314C59.529 35.0303 59.6017 35.0438 59.6695 35.0712C59.7373 35.0986 59.7988 35.1393 59.8503 35.1909L59.868 35.2084L60.1578 34.923L60.1385 34.9038C60.0479 34.8127 59.9391 34.7414 59.819 34.6945C59.6989 34.6475 59.5702 34.6259 59.4412 34.6311C58.8793 34.6311 58.6248 34.9708 58.6248 35.2866C58.6248 35.5688 58.7859 35.7459 59.182 35.875C59.4396 35.9659 59.4863 36.0345 59.4863 36.1366C59.4863 36.2961 59.3607 36.3854 59.153 36.3854C59.0669 36.3881 58.9812 36.3724 58.9017 36.3393C58.8222 36.3063 58.7509 36.2567 58.6925 36.194L58.6747 36.1765L58.364 36.4795L58.3817 36.4986C58.4796 36.5993 58.598 36.6782 58.729 36.7301C58.86 36.7821 59.0007 36.8059 59.1417 36.8C59.8036 36.8 60.0371 36.4045 60.0371 36.0632C60.0371 35.7682 59.876 35.5848 59.496 35.4652C59.2174 35.3743 59.1739 35.3217 59.1739 35.2308C59.1739 35.1064 59.2818 35.0314 59.4557 35.0314Z" fill="#0B2D72"/>
<path d="M60.2722 36.7204L60.2673 36.7507H60.7939L61.0821 34.7094L61.0854 34.6807H60.5604L60.2722 36.7204Z" fill="#0B2D72"/>
<path d="M63.0919 34.6807H62.5444L61.984 36.2324L61.8455 34.6807H61.2932L61.5991 36.7507H62.2271L63.0774 34.7157L63.0919 34.6807Z" fill="#0B2D72"/>
<path d="M64.1208 34.6294C63.2592 34.6294 63.0306 35.4571 63.0306 35.9451C63.0306 36.4873 63.3237 36.7983 63.8357 36.7983C64.0062 36.8044 64.1752 36.7657 64.3257 36.6861C64.4762 36.6066 64.6027 36.489 64.6924 36.3454C64.8479 36.0842 64.9275 35.7857 64.9227 35.4826C64.9227 34.9404 64.6312 34.6294 64.1208 34.6294ZM64.3832 35.4427C64.3832 35.54 64.3687 36.3996 63.8679 36.3996C63.7294 36.3996 63.57 36.3517 63.57 35.9818C63.57 35.6118 63.6795 35.0249 64.0853 35.0249C64.2914 35.0313 64.3832 35.1573 64.3832 35.4427Z" fill="#0B2D72"/>
<path d="M66.0709 35.0314C66.1441 35.0302 66.2168 35.0438 66.2846 35.0712C66.3524 35.0986 66.4139 35.1393 66.4654 35.1909L66.4831 35.2084L66.773 34.9229L66.7537 34.9038C66.663 34.8128 66.5542 34.7415 66.4341 34.6946C66.314 34.6476 66.1854 34.626 66.0564 34.6311C65.4944 34.6311 65.2384 34.9708 65.2384 35.2865C65.2384 35.5688 65.3994 35.7458 65.7972 35.875C66.0532 35.9659 66.1015 36.0345 66.1015 36.1366C66.1015 36.296 65.9759 36.3853 65.7682 36.3853C65.682 36.388 65.5963 36.3723 65.5169 36.3393C65.4374 36.3063 65.366 36.2567 65.3076 36.194L65.2883 36.1764L64.9791 36.4794L64.9968 36.4986C65.0948 36.5992 65.2132 36.6782 65.3442 36.7301C65.4752 36.7821 65.6159 36.8059 65.7569 36.8C66.4187 36.8 66.6522 36.4045 66.6522 36.0632C66.6522 35.7682 66.4912 35.5848 66.1112 35.4652C65.8326 35.3743 65.7891 35.3216 65.7891 35.2307C65.7891 35.1063 65.897 35.0314 66.0709 35.0314Z" fill="#0B2D72"/>
<path d="M69.4122 35.2677C69.4122 34.8881 69.1336 34.6792 68.6296 34.6792H67.9549L67.6666 36.7205V36.7492H68.1916L68.2866 36.0762H68.4863C69.1707 36.0762 69.4122 35.6408 69.4122 35.2677ZM68.8679 35.2916C68.8743 35.3432 68.8691 35.3955 68.8524 35.4449C68.8358 35.4942 68.8083 35.5392 68.7719 35.5766C68.7355 35.6141 68.6911 35.643 68.642 35.6613C68.5928 35.6795 68.5402 35.6867 68.4879 35.6823H68.3446L68.4315 35.0715H68.5829C68.781 35.0715 68.8679 35.1401 68.8679 35.2916Z" fill="#0B2D72"/>
<path d="M70.0225 34.679L69.124 36.7139L69.1078 36.749H69.6602L69.8212 36.3152H70.3703L70.4122 36.749H70.9629L70.6409 34.6758L70.0225 34.679ZM70.3301 35.9165H69.9678L70.256 35.1415L70.3301 35.9165Z" fill="#0B2D72"/>
<path d="M73.7519 34.6791L72.8534 36.714L72.8437 36.7363L72.4637 35.8895C72.5999 35.8446 72.7179 35.7573 72.8 35.6406C72.8821 35.524 72.924 35.3842 72.9194 35.2421C72.9194 34.8784 72.6441 34.6791 72.1465 34.6791H71.4685L71.1787 36.7204V36.7491H71.7053L71.8131 35.9788H71.9742L72.2834 36.7475H73.3993L73.5603 36.3137H74.1094L74.1513 36.7475H74.702L74.38 34.6743L73.7519 34.6791ZM72.3751 35.2644C72.379 35.3088 72.3731 35.3536 72.3577 35.3956C72.3424 35.4375 72.318 35.4757 72.2863 35.5074C72.2546 35.5391 72.2163 35.5636 72.1741 35.5792C72.1319 35.5948 72.0867 35.6011 72.0418 35.5977H71.8631L71.9387 35.0666H72.0998C72.2914 35.0666 72.3751 35.1256 72.3751 35.2644ZM74.0595 35.9166H73.6972L73.9854 35.1416L74.0595 35.9166Z" fill="#0B2D72"/>
<path d="M76.9935 34.6807L76.4331 36.2324L76.2946 34.6807H75.7439L76.0482 36.7507H76.6763L77.5426 34.6807H76.9935Z" fill="#0B2D72"/>
<path d="M78.5717 34.6294C77.7102 34.6294 77.4815 35.4571 77.4815 35.9451C77.4815 36.4873 77.7746 36.7983 78.2867 36.7983C78.4571 36.8044 78.6262 36.7657 78.7766 36.6861C78.9271 36.6066 79.0536 36.489 79.1433 36.3454C79.2988 36.0842 79.3785 35.7857 79.3736 35.4826C79.3736 34.9404 79.0805 34.6294 78.5717 34.6294ZM78.8342 35.4427C78.8342 35.54 78.8197 36.3996 78.3189 36.3996C78.1804 36.3996 78.021 36.3517 78.021 35.9818C78.021 35.6118 78.1289 35.0249 78.5363 35.0249C78.744 35.0313 78.8342 35.1573 78.8342 35.4427Z" fill="#0B2D72"/>
<path d="M80.6764 35.0349C80.796 35.0364 80.9107 35.0819 80.9985 35.1624L81.0162 35.1768L81.3076 34.8961L81.2899 34.877C81.2103 34.794 81.1136 34.729 81.0063 34.6863C80.8991 34.6437 80.7838 34.6244 80.6683 34.6298C79.9308 34.6298 79.5943 35.3092 79.5943 35.9407C79.5943 36.4781 79.8954 36.7987 80.3994 36.7987C80.6537 36.7987 80.8988 36.7049 81.087 36.5355L81.1031 36.5212L80.8906 36.2022L80.868 36.2182C80.7574 36.3132 80.6181 36.3692 80.4719 36.3777C80.2513 36.3777 80.1402 36.2309 80.1402 35.9407C80.145 35.6281 80.2561 35.0349 80.6764 35.0349Z" fill="#0B2D72"/>
<path d="M82.3269 34.3104L82.6844 34.5592L82.8953 34.336L82.5153 33.9341H82.2158L81.7262 34.3312L81.9066 34.5592L82.3269 34.3104Z" fill="#0B2D72"/>
<path d="M82.8084 35.073L82.9243 34.6807H81.6344L81.3462 36.7204L81.3414 36.7507H82.6264L82.6811 36.3552H81.9259L81.9919 35.8911H82.6087L82.6602 35.5036H82.0435L82.1063 35.073H82.8084Z" fill="#0B2D72"/>
<path d="M83.2336 36.2193C83.1482 36.2193 83.0663 36.2529 83.0059 36.3127C82.9455 36.3725 82.9115 36.4537 82.9115 36.5382C82.9093 36.5728 82.9143 36.6074 82.9263 36.6399C82.9384 36.6724 82.9571 36.702 82.9813 36.7269C83.0056 36.7518 83.0348 36.7715 83.0672 36.7846C83.0995 36.7977 83.1343 36.8039 83.1692 36.803C83.2546 36.803 83.3365 36.7694 83.3969 36.7096C83.4573 36.6497 83.4912 36.5686 83.4912 36.484C83.4932 36.4495 83.488 36.415 83.4759 36.3827C83.4638 36.3503 83.4451 36.3207 83.4209 36.2959C83.3967 36.271 83.3675 36.2514 83.3353 36.2382C83.3031 36.225 83.2685 36.2186 83.2336 36.2193Z" fill="#0B2D72"/>
</svg>
